<?xml version="1.0" encoding="UTF-8" standalone="no"?>
<svg width="18px" height="12px" viewBox="0 0 18 12" version="1.1" xmlns="http://www.w3.org/2000/svg" xmlns:xlink="http://www.w3.org/1999/xlink">
    <!-- Generator: Sketch 40.2 (33826) - http://www.bohemiancoding.com/sketch -->
    <title>right-arrow</title>
    <desc>Created with Sketch.</desc>
    <defs></defs>
    <g id="System" stroke="none" stroke-width="1" fill="none" fill-rule="evenodd">
        <g id="Buttons" transform="translate(-220.000000, -1275.000000)">
            <g id="right-arrow" transform="translate(229.000000, 1281.000000) scale(-1, 1) translate(-229.000000, -1281.000000) translate(217.000000, 1269.000000)">
                <g id="Group">
                    <polygon id="Shape" points="0 0 24 0 24 24 0 24"></polygon>
                    <path d="M21,12 C21,11.4477153 20.5603818,11 20.0035931,11 L6.83,11 L9.7027072,8.11926848 C10.0933342,7.72755031 10.0970753,7.0970753 9.705,6.705 L9.705,6.705 C9.31563925,6.31563925 8.67741394,6.32258606 8.28815961,6.71184039 L3.71184039,11.2881596 C3.3187018,11.6812982 3.32258606,12.3225861 3.71184039,12.7118404 L8.28815961,17.2881596 C8.6812982,17.6812982 9.3129247,17.6870753 9.705,17.295 L9.705,17.295 C10.0943607,16.9056393 10.0922989,16.2714114 9.7027072,15.8807315 L6.83,13 L20.0035931,13 C20.5538934,13 21,12.5561352 21,12 L21,12 Z" id="Shape" fill="#148DCD"></path>
                </g>
            </g>
        </g>
    </g>
</svg>