<svg xmlns="http://www.w3.org/2000/svg" xmlns:xlink="http://www.w3.org/1999/xlink" width="917.1mm" height="757.2mm" viewBox="0 0 2599.7 2146.4"><defs><style>.a{opacity:.7}.b{fill:url(#a)}.c{fill:url(#b)}.d{fill:url(#c)}.e{fill:url(#d)}.f{fill:url(#e)}.g{fill:url(#f)}.h{fill:url(#g)}.i{fill:url(#h)}.j{fill:url(#i)}.k{fill:url(#j)}.l{fill:url(#k)}.m{fill:url(#l)}.n{fill:url(#m)}.o{opacity:.66}.p{fill:url(#n)}.q{fill:url(#o)}.r{fill:url(#p)}.s{fill:url(#q)}.t{fill:url(#r)}.u{fill:url(#s)}.v{fill:url(#t)}.w{fill:url(#u)}.x{fill:url(#v)}.y{fill:url(#w)}.z{fill:url(#x)}.aa{fill:url(#y)}.ab{fill:url(#z)}.ac{fill:url(#aa)}.ad{fill:url(#ab)}.ae{fill:url(#ac)}.af{fill:url(#ad)}.ag{fill:url(#ae)}.ah{fill:url(#af)}.ai{fill:url(#ag)}.aj{fill:url(#ah)}.ak{fill:url(#ai)}.al{fill:url(#aj)}.am{fill:url(#ak)}.an{fill:url(#al)}.ao{fill:url(#am)}.ap{fill:url(#an)}.aq{fill:url(#ao)}.ar{fill:url(#ap)}.as{fill:url(#aq)}.at{fill:url(#ar)}.au{fill:url(#as)}.av{fill:url(#at)}.aw{fill:url(#au)}.ax{fill:url(#av)}.ay{fill:url(#aw)}.az{fill:url(#ax)}.ba{fill:url(#ay)}.bb{fill:url(#az)}.bc{fill:url(#ba)}.bd{fill:url(#bb)}.be{fill:url(#bc)}.bf{fill:url(#bd)}.bg{fill:url(#be)}.bh{fill:url(#bf)}.bi{fill:url(#bg)}.bj{fill:url(#bh)}.bk{fill:url(#bi)}.bl{fill:url(#bj)}.bm{fill:url(#bk)}.bn{fill:url(#bl)}.bo{fill:url(#bm)}.bp{fill:url(#bn)}.bq{fill:url(#bo)}.br{fill:url(#bp)}.bs{fill:url(#bq)}.bt{fill:url(#br)}.bu{fill:url(#bs)}.bv{fill:url(#bt)}.bw{fill:url(#bu)}.bx{fill:url(#bv)}.by{fill:url(#bw)}.bz{fill:url(#bx)}.ca{fill:url(#by)}.cb{fill:url(#bz)}.cc{fill:url(#ca)}.cd{fill:url(#cb)}.ce{fill:url(#cc)}.cf{fill:url(#cd)}.cg{fill:url(#ce)}.ch{fill:url(#cf)}.ci{fill:url(#cg)}.cj{fill:url(#ch)}.ck{fill:url(#ci)}.cl{fill:url(#cj)}.cm{fill:url(#ck)}.cn{fill:url(#cl)}.co{fill:url(#cm)}.cp{fill:url(#cn)}.cq{fill:url(#co)}.cr{fill:url(#cp)}.cs{fill:url(#cq)}.ct{fill:url(#cr)}.cu{fill:url(#cs)}.cv{fill:url(#ct)}.cw{fill:url(#cu)}.cx{fill:url(#cv)}.cy{fill:url(#cw)}.cz{fill:url(#cx)}.da{fill:url(#cy)}.db{fill:url(#cz)}.dc{fill:url(#da)}.dd{fill:url(#db)}.de{fill:url(#dc)}.df{fill:url(#dd)}.dg{fill:url(#de)}.dh{fill:url(#df)}.di{fill:url(#dg)}.dj{fill:url(#dh)}.dk{fill:url(#di)}.dl{fill:url(#dj)}.dm{fill:url(#dk)}.dn{fill:url(#dl)}.do{fill:url(#dm)}.dp{fill:url(#dn)}.dq{fill:url(#do)}.dr{fill:url(#dp)}.ds{fill:url(#dq)}.dt{fill:url(#dr)}.du{fill:url(#ds)}.dv{fill:url(#dt)}.dw{fill:url(#du)}.dx{fill:url(#dv)}.dy{fill:url(#dw)}.dz{fill:url(#dx)}.ea{fill:url(#dy)}.eb{fill:url(#dz)}.ec{fill:url(#ea)}.ed{fill:url(#eb)}.ee{fill:url(#ec)}.ef{fill:url(#ed)}.eg{fill:url(#ee)}.eh{fill:url(#ef)}.ei{fill:url(#eg)}.ej{fill:url(#eh)}.ek{fill:url(#ei)}.el{fill:url(#ej)}.em{fill:url(#ek)}.en{fill:url(#el)}.eo{fill:url(#em)}.ep{fill:url(#en)}.eq{fill:url(#eo)}.er{fill:url(#ep)}.es{fill:url(#eq)}.et{fill:url(#er)}.eu{fill:url(#es)}.ev{fill:url(#et)}.ew{fill:url(#eu)}.ex{fill:url(#ev)}.ey{fill:url(#ew)}.ez{fill:url(#ex)}.fa{fill:url(#ey)}.fb{fill:url(#ez)}.fc{fill:url(#fa)}.fd{fill:url(#fb)}.fe{fill:url(#fc)}.ff{fill:url(#fd)}.fg{fill:url(#fe)}.fh{fill:url(#ff)}.fi{fill:url(#fg)}.fj{fill:url(#fh)}.fk{fill:url(#fi)}.fl{fill:url(#fj)}.fm{fill:url(#fk)}.fn{fill:url(#fl)}.fo{fill:url(#fm)}.fp{fill:url(#fn)}.fq{fill:url(#fo)}</style><linearGradient id="a" x1="1576.13" y1="-1.14" x2="-275.87" y2="1624.86" gradientTransform="matrix(1 0 0 -1 0 2563.89)" gradientUnits="userSpaceOnUse"><stop offset="0" stop-color="#904dc4"/><stop offset="1" stop-color="#57a3d9"/></linearGradient><linearGradient id="b" x1="1504.62" y1="-82.58" x2="-347.38" y2="1543.42" gradientTransform="matrix(1 0 0 -1 -36.5 2523.79)" xlink:href="#a"/><linearGradient id="c" x1="1855.6" y1="317.18" x2="3.6" y2="1943.18" xlink:href="#a"/><linearGradient id="d" x1="1948.36" y1="422.83" x2="96.36" y2="2048.83" gradientTransform="matrix(1 0 0 -1 -36.5 2523.79)" xlink:href="#a"/><linearGradient id="e" x1="3034.45" y1="1659.88" x2="1182.45" y2="3285.88" xlink:href="#a"/><linearGradient id="f" x1="2985.36" y1="1603.97" x2="1133.36" y2="3229.97" gradientTransform="matrix(1 0 0 -1 -36.5 2523.79)" xlink:href="#a"/><linearGradient id="g" x1="2639.78" y1="1210.35" x2="787.78" y2="2836.35" xlink:href="#a"/><linearGradient id="h" x1="2144.37" y1="646.09" x2="292.37" y2="2272.09" xlink:href="#a"/><linearGradient id="i" x1="2170.7" y1="676.08" x2="318.7" y2="2302.08" gradientTransform="matrix(1 0 0 -1 -36.5 2523.79)" xlink:href="#a"/><linearGradient id="j" x1="2065.69" y1="556.42" x2="213.69" y2="2182.42" xlink:href="#a"/><linearGradient id="k" x1="1981.97" y1="461.11" x2="129.97" y2="2087.11" gradientTransform="matrix(1 0 0 -1 -36.5 2523.79)" xlink:href="#a"/><linearGradient id="l" x1="2149.12" y1="651.5" x2="297.12" y2="2277.5" gradientTransform="matrix(1 0 0 -1 -36.5 2523.79)" xlink:href="#a"/><linearGradient id="m" x1="2790.03" y1="1381.49" x2="938.03" y2="3007.49" xlink:href="#a"/><linearGradient id="n" x1="2341.71" y1="870.86" x2="489.71" y2="2496.86" xlink:href="#a"/><linearGradient id="o" x1="2264.53" y1="782.95" x2="412.53" y2="2408.95" xlink:href="#a"/><linearGradient id="p" x1="1810.62" y1="265.94" x2="-41.38" y2="1891.94" xlink:href="#a"/><linearGradient id="q" x1="1733.44" y1="178.04" x2="-118.56" y2="1804.04" xlink:href="#a"/><linearGradient id="r" x1="2320.13" y1="846.28" x2="468.13" y2="2472.28" xlink:href="#a"/><linearGradient id="s" x1="2165.73" y1="670.42" x2="313.73" y2="2296.42" xlink:href="#a"/><linearGradient id="t" x1="2032.96" y1="519.19" x2="180.96" y2="2145.19" xlink:href="#a"/><linearGradient id="u" x1="1955.78" y1="431.29" x2="103.78" y2="2057.29" xlink:href="#a"/><linearGradient id="v" x1="1823.01" y1="280.06" x2="-28.99" y2="1906.06" xlink:href="#a"/><linearGradient id="w" x1="1690.23" y1="128.83" x2="-161.77" y2="1754.83" xlink:href="#a"/><linearGradient id="x" x1="1844.59" y1="304.64" x2="-7.41" y2="1930.64" xlink:href="#a"/><linearGradient id="y" x1="2230.52" y1="744.21" x2="378.52" y2="2370.21" xlink:href="#a"/><linearGradient id="z" x1="2307.7" y1="832.11" x2="455.7" y2="2458.11" xlink:href="#a"/><linearGradient id="aa" x1="2440.47" y1="983.34" x2="588.47" y2="2609.34" xlink:href="#a"/><linearGradient id="ab" x1="2594.87" y1="1159.2" x2="742.87" y2="2785.2" xlink:href="#a"/><linearGradient id="ac" x1="1745.83" y1="192.15" x2="-106.17" y2="1818.15" xlink:href="#a"/><linearGradient id="ad" x1="2744.58" y1="1329.72" x2="892.58" y2="2955.72" xlink:href="#a"/><linearGradient id="ae" x1="2666.28" y1="1240.54" x2="814.28" y2="2866.54" gradientTransform="matrix(1 0 0 -1 -36.5 2523.79)" xlink:href="#a"/><linearGradient id="af" x1="2649.71" y1="1221.66" x2="797.71" y2="2847.66" xlink:href="#a"/><linearGradient id="ag" x1="2253.83" y1="770.76" x2="401.83" y2="2396.76" xlink:href="#a"/><linearGradient id="ah" x1="2274.19" y1="793.95" x2="422.19" y2="2419.95" xlink:href="#a"/><linearGradient id="ai" x1="2225.79" y1="738.83" x2="373.79" y2="2364.83" gradientTransform="matrix(1 0 0 -1 -36.5 2523.79)" xlink:href="#a"/><linearGradient id="aj" x1="2742.19" y1="1326.99" x2="890.18" y2="2952.99" xlink:href="#a"/><linearGradient id="ak" x1="2644.07" y1="1215.24" x2="792.07" y2="2841.24" gradientTransform="matrix(1 0 0 -1 -36.5 2523.79)" xlink:href="#a"/><linearGradient id="al" x1="2840.28" y1="1438.73" x2="988.28" y2="3064.73" gradientTransform="matrix(1 0 0 -1 -36.5 2523.79)" xlink:href="#a"/><linearGradient id="am" x1="1971.34" y1="449.01" x2="119.34" y2="2075.01" xlink:href="#a"/><linearGradient id="an" x1="1918.06" y1="388.32" x2="66.06" y2="2014.32" gradientTransform="matrix(1 0 0 -1 -36.5 2523.79)" xlink:href="#a"/><linearGradient id="ao" x1="1854.37" y1="315.78" x2="2.37" y2="1941.78" xlink:href="#a"/><linearGradient id="ap" x1="1945.06" y1="419.08" x2="93.06" y2="2045.08" gradientTransform="matrix(1 0 0 -1 -36.5 2523.79)" xlink:href="#a"/><linearGradient id="aq" x1="1761.65" y1="210.17" x2="-90.35" y2="1836.17" gradientTransform="matrix(1 0 0 -1 -36.5 2523.79)" xlink:href="#a"/><linearGradient id="ar" x1="1673.88" y1="110.21" x2="-178.12" y2="1736.21" xlink:href="#a"/><linearGradient id="as" x1="1643.63" y1="75.75" x2="-208.37" y2="1701.75" gradientTransform="matrix(1 0 0 -1 -36.5 2523.79)" xlink:href="#a"/><linearGradient id="at" x1="2698.27" y1="1276.97" x2="846.27" y2="2902.97" xlink:href="#a"/><linearGradient id="au" x1="2786.13" y1="1377.05" x2="934.13" y2="3003.05" gradientTransform="matrix(1 0 0 -1 -36.5 2523.79)" xlink:href="#a"/><linearGradient id="av" x1="2610.69" y1="1177.22" x2="758.69" y2="2803.22" gradientTransform="matrix(1 0 0 -1 -36.5 2523.79)" xlink:href="#a"/><linearGradient id="aw" x1="2770.96" y1="1359.76" x2="918.96" y2="2985.76" xlink:href="#a"/><linearGradient id="ax" x1="2612.72" y1="1179.54" x2="760.72" y2="2805.54" gradientTransform="matrix(1 0 0 -1 -36.5 2523.79)" xlink:href="#a"/><linearGradient id="ay" x1="2876.24" y1="1479.68" x2="1024.24" y2="3105.68" gradientTransform="matrix(1 0 0 -1 -36.5 2523.79)" xlink:href="#a"/><linearGradient id="az" x1="2506.48" y1="1058.53" x2="654.48" y2="2684.53" xlink:href="#a"/><linearGradient id="ba" x1="2382.26" y1="917.04" x2="530.26" y2="2543.04" xlink:href="#a"/><linearGradient id="bb" x1="1951.8" y1="426.75" x2="99.8" y2="2052.75" xlink:href="#a"/><linearGradient id="bc" x1="1927.24" y1="398.78" x2="75.24" y2="2024.78" xlink:href="#a"/><linearGradient id="bd" x1="1916" y1="385.98" x2="64" y2="2011.98" gradientTransform="matrix(1 0 0 -1 -36.5 2523.79)" xlink:href="#a"/><linearGradient id="be" x1="1885.49" y1="351.23" x2="33.49" y2="1977.23" gradientTransform="matrix(1 0 0 -1 -36.5 2523.79)" xlink:href="#a"/><linearGradient id="bf" x1="1861.22" y1="323.58" x2="9.22" y2="1949.58" gradientTransform="matrix(1 0 0 -1 -36.5 2523.79)" xlink:href="#a"/><linearGradient id="bg" x1="1838.83" y1="298.08" x2="-13.17" y2="1924.08" gradientTransform="matrix(1 0 0 -1 -36.5 2523.79)" xlink:href="#a"/><linearGradient id="bh" x1="1883.57" y1="349.04" x2="31.57" y2="1975.04" gradientTransform="matrix(1 0 0 -1 -36.5 2523.79)" xlink:href="#a"/><linearGradient id="bi" x1="2997.35" y1="1617.62" x2="1145.35" y2="3243.62" gradientTransform="matrix(1 0 0 -1 -36.5 2523.79)" xlink:href="#a"/><linearGradient id="bj" x1="2974.99" y1="1592.16" x2="1122.99" y2="3218.16" gradientTransform="matrix(1 0 0 -1 -36.5 2523.79)" xlink:href="#a"/><linearGradient id="bk" x1="3019.74" y1="1643.13" x2="1167.74" y2="3269.13" gradientTransform="matrix(1 0 0 -1 -36.5 2523.79)" xlink:href="#a"/><linearGradient id="bl" x1="1828.28" y1="286.07" x2="-23.72" y2="1912.07" xlink:href="#a"/><linearGradient id="bm" x1="1881.54" y1="346.72" x2="29.54" y2="1972.72" gradientTransform="matrix(1 0 0 -1 -36.5 2523.79)" xlink:href="#a"/><linearGradient id="bn" x1="1734.9" y1="179.7" x2="-117.1" y2="1805.7" xlink:href="#a"/><linearGradient id="bo" x1="1750.8" y1="197.82" x2="-101.2" y2="1823.82" gradientTransform="matrix(1 0 0 -1 -36.5 2523.79)" xlink:href="#a"/><linearGradient id="bp" x1="1772.01" y1="221.98" x2="-79.99" y2="1847.98" gradientTransform="matrix(1 0 0 -1 -36.5 2523.79)" xlink:href="#a"/><linearGradient id="bq" x1="2489.48" y1="1039.16" x2="637.48" y2="2665.16" xlink:href="#a"/><linearGradient id="br" x1="2335.12" y1="863.35" x2="483.12" y2="2489.35" xlink:href="#a"/><linearGradient id="bs" x1="1816.42" y1="272.55" x2="-35.58" y2="1898.55" xlink:href="#a"/><linearGradient id="bt" x1="1806.89" y1="261.7" x2="-45.11" y2="1887.7" gradientTransform="matrix(1 0 0 -1 -36.5 2523.79)" xlink:href="#a"/><linearGradient id="bu" x1="1739.24" y1="184.65" x2="-112.76" y2="1810.65" xlink:href="#a"/><linearGradient id="bv" x1="1644.61" y1="76.87" x2="-207.39" y2="1702.87" gradientTransform="matrix(1 0 0 -1 -36.5 2523.79)" xlink:href="#a"/><linearGradient id="bw" x1="2909.38" y1="1517.43" x2="1057.38" y2="3143.43" xlink:href="#a"/><linearGradient id="bx" x1="2899.85" y1="1506.58" x2="1047.85" y2="3132.58" gradientTransform="matrix(1 0 0 -1 -36.5 2523.79)" xlink:href="#a"/><linearGradient id="by" x1="2865.34" y1="1467.27" x2="1013.34" y2="3093.27" gradientTransform="matrix(1 0 0 -1 -36.5 2523.79)" xlink:href="#a"/><linearGradient id="bz" x1="3004.93" y1="1626.26" x2="1152.93" y2="3252.26" xlink:href="#a"/><linearGradient id="ca" x1="3064.75" y1="1694.39" x2="1212.75" y2="3320.39" gradientTransform="matrix(1 0 0 -1 -36.5 2523.79)" xlink:href="#a"/><linearGradient id="cb" x1="2749.65" y1="1335.5" x2="897.65" y2="2961.5" xlink:href="#a"/><linearGradient id="cc" x1="2810.05" y1="1404.29" x2="958.05" y2="3030.3" xlink:href="#a"/><linearGradient id="cd" x1="2863.31" y1="1464.95" x2="1011.31" y2="3090.95" gradientTransform="matrix(1 0 0 -1 -36.5 2523.79)" xlink:href="#a"/><linearGradient id="ce" x1="2809.75" y1="1403.95" x2="957.75" y2="3029.95" gradientTransform="matrix(1 0 0 -1 -36.5 2523.79)" xlink:href="#a"/><linearGradient id="cf" x1="2892.37" y1="1498.05" x2="1040.37" y2="3124.05" xlink:href="#a"/><linearGradient id="cg" x1="2886.97" y1="1491.9" x2="1034.97" y2="3117.9" gradientTransform="matrix(1 0 0 -1 -36.5 2523.79)" xlink:href="#a"/><linearGradient id="ch" x1="2897.82" y1="1504.26" x2="1045.82" y2="3130.26" gradientTransform="matrix(1 0 0 -1 -36.5 2523.79)" xlink:href="#a"/><linearGradient id="ci" x1="1705.48" y1="146.19" x2="-146.52" y2="1772.19" xlink:href="#a"/><linearGradient id="cj" x1="1781.2" y1="232.44" x2="-70.8" y2="1858.44" gradientTransform="matrix(1 0 0 -1 -36.5 2523.79)" xlink:href="#a"/><linearGradient id="ck" x1="2595.9" y1="1160.38" x2="743.9" y2="2786.38" xlink:href="#a"/><linearGradient id="cl" x1="2775.39" y1="1364.81" x2="923.39" y2="2990.81" gradientTransform="matrix(1 0 0 -1 -36.5 2523.79)" xlink:href="#a"/><linearGradient id="cm" x1="2416.7" y1="956.27" x2="564.7" y2="2582.27" gradientTransform="matrix(1 0 0 -1 -36.5 2523.79)" xlink:href="#a"/><linearGradient id="cn" x1="2279.52" y1="800.03" x2="427.52" y2="2426.03" xlink:href="#a"/><linearGradient id="co" x1="2163.76" y1="668.17" x2="311.76" y2="2294.17" xlink:href="#a"/><linearGradient id="cp" x1="2081.13" y1="574.06" x2="229.13" y2="2200.06" gradientTransform="matrix(1 0 0 -1 -36.5 2523.79)" xlink:href="#a"/><linearGradient id="cq" x1="2422.58" y1="962.97" x2="570.58" y2="2588.97" xlink:href="#a"/><linearGradient id="cr" x1="2347.18" y1="877.08" x2="495.18" y2="2503.08" gradientTransform="matrix(1 0 0 -1 -36.5 2523.79)" xlink:href="#a"/><linearGradient id="cs" x1="2412.89" y1="951.93" x2="560.89" y2="2577.93" xlink:href="#a"/><linearGradient id="ct" x1="2544.2" y1="1101.49" x2="692.2" y2="2727.49" gradientTransform="matrix(1 0 0 -1 -36.5 2523.79)" xlink:href="#a"/><linearGradient id="cu" x1="2387.83" y1="923.39" x2="535.83" y2="2549.39" gradientTransform="matrix(1 0 0 -1 -36.5 2523.79)" xlink:href="#a"/><linearGradient id="cv" x1="2069.57" y1="560.89" x2="217.57" y2="2186.89" xlink:href="#a"/><linearGradient id="cw" x1="2360.92" y1="892.74" x2="508.92" y2="2518.74" xlink:href="#a"/><linearGradient id="cx" x1="2373.74" y1="907.34" x2="521.74" y2="2533.34" xlink:href="#a"/><linearGradient id="cy" x1="2281.4" y1="802.16" x2="429.4" y2="2428.16" gradientTransform="matrix(1 0 0 -1 -36.5 2523.79)" xlink:href="#a"/><linearGradient id="cz" x1="2501.87" y1="1053.27" x2="649.87" y2="2679.27" xlink:href="#a"/><linearGradient id="da" x1="2395.16" y1="931.74" x2="543.16" y2="2557.74" xlink:href="#a"/><linearGradient id="db" x1="2357.53" y1="888.88" x2="505.53" y2="2514.88" gradientTransform="matrix(1 0 0 -1 -36.5 2523.79)" xlink:href="#a"/><linearGradient id="dc" x1="2516.24" y1="1069.64" x2="664.24" y2="2695.64" xlink:href="#a"/><linearGradient id="dd" x1="2492.34" y1="1042.42" x2="640.34" y2="2668.42" gradientTransform="matrix(1 0 0 -1 -36.5 2523.79)" xlink:href="#a"/><linearGradient id="de" x1="2429.83" y1="971.22" x2="577.83" y2="2597.22" xlink:href="#a"/><linearGradient id="df" x1="2518.02" y1="1071.67" x2="666.02" y2="2697.67" gradientTransform="matrix(1 0 0 -1 -36.5 2523.79)" xlink:href="#a"/><linearGradient id="dg" x1="2337.99" y1="866.61" x2="485.99" y2="2492.61" gradientTransform="matrix(1 0 0 -1 -36.5 2523.79)" xlink:href="#a"/><linearGradient id="dh" x1="2375.68" y1="909.55" x2="523.68" y2="2535.55" xlink:href="#a"/><linearGradient id="di" x1="2220.67" y1="732.99" x2="368.67" y2="2358.99" xlink:href="#a"/><linearGradient id="dj" x1="2203.18" y1="713.07" x2="351.18" y2="2339.07" gradientTransform="matrix(1 0 0 -1 -36.5 2523.79)" xlink:href="#a"/><linearGradient id="dk" x1="2115.41" y1="613.1" x2="263.41" y2="2239.1" xlink:href="#a"/><linearGradient id="dl" x1="2168.67" y1="673.76" x2="316.67" y2="2299.76" gradientTransform="matrix(1 0 0 -1 -36.5 2523.79)" xlink:href="#a"/><linearGradient id="dm" x1="2183.88" y1="691.01" x2="331.88" y2="2317.01" xlink:href="#a"/><linearGradient id="dn" x1="2212.55" y1="723.75" x2="360.55" y2="2349.75" gradientTransform="matrix(1 0 0 -1 -36.5 2523.79)" xlink:href="#a"/><linearGradient id="do" x1="2274.91" y1="794.77" x2="422.91" y2="2420.77" xlink:href="#a"/><linearGradient id="dp" x1="2400.2" y1="937.48" x2="548.2" y2="2563.48" gradientTransform="matrix(1 0 0 -1 -36.5 2523.79)" xlink:href="#a"/><linearGradient id="dq" x1="2149.62" y1="652.06" x2="297.62" y2="2278.06" gradientTransform="matrix(1 0 0 -1 -36.5 2523.79)" xlink:href="#a"/><linearGradient id="dr" x1="2026.37" y1="511.68" x2="174.37" y2="2137.68" xlink:href="#a"/><linearGradient id="ds" x1="2100.93" y1="596.61" x2="248.93" y2="2222.61" xlink:href="#a"/><linearGradient id="dt" x1="2178.11" y1="684.52" x2="326.11" y2="2310.52" xlink:href="#a"/><linearGradient id="du" x1="1970.77" y1="448.36" x2="118.77" y2="2074.36" xlink:href="#a"/><linearGradient id="dv" x1="1680.74" y1="118.02" x2="-171.26" y2="1744.02" xlink:href="#a"/><linearGradient id="dw" x1="1615.18" y1="43.35" x2="-236.82" y2="1669.35" gradientTransform="matrix(1 0 0 -1 -36.5 2523.79)" xlink:href="#a"/><linearGradient id="dx" x1="1580.76" y1="4.14" x2="-271.24" y2="1630.14" gradientTransform="matrix(1 0 0 -1 -36.5 2523.79)" xlink:href="#a"/><linearGradient id="dy" x1="1951.77" y1="426.72" x2="99.77" y2="2052.72" xlink:href="#a"/><linearGradient id="dz" x1="1800.53" y1="254.45" x2="-51.47" y2="1880.45" gradientTransform="matrix(1 0 0 -1 -36.5 2523.79)" xlink:href="#a"/><linearGradient id="ea" x1="2102.72" y1="598.64" x2="250.72" y2="2224.64" gradientTransform="matrix(1 0 0 -1 -36.5 2523.79)" xlink:href="#a"/><linearGradient id="eb" x1="1936.8" y1="409.67" x2="84.8" y2="2035.67" xlink:href="#a"/><linearGradient id="ec" x1="1698.66" y1="138.43" x2="-153.34" y2="1764.43" xlink:href="#a"/><linearGradient id="ed" x1="1705.22" y1="145.9" x2="-146.78" y2="1771.9" xlink:href="#a"/><linearGradient id="ee" x1="1609.13" y1="36.46" x2="-242.87" y2="1662.46" gradientTransform="matrix(1 0 0 -1 -36.5 2523.79)" xlink:href="#a"/><linearGradient id="ef" x1="1661.19" y1="95.75" x2="-190.81" y2="1721.75" gradientTransform="matrix(1 0 0 -1 -36.5 2523.79)" xlink:href="#a"/><linearGradient id="eg" x1="1507.14" y1="-79.71" x2="-344.86" y2="1546.29" xlink:href="#a"/><linearGradient id="eh" x1="1560.42" y1="-19.03" x2="-291.58" y2="1606.97" gradientTransform="matrix(1 0 0 -1 -36.5 2523.79)" xlink:href="#a"/><linearGradient id="ei" x1="1506.83" y1="-80.06" x2="-345.17" y2="1545.94" gradientTransform="matrix(1 0 0 -1 -36.5 2523.79)" xlink:href="#a"/><linearGradient id="ej" x1="2181.85" y1="688.78" x2="329.85" y2="2314.78" xlink:href="#a"/><linearGradient id="ek" x1="2042.72" y1="530.3" x2="190.72" y2="2156.3" gradientTransform="matrix(1 0 0 -1 -36.5 2523.79)" xlink:href="#a"/><linearGradient id="el" x1="1911.19" y1="380.5" x2="59.19" y2="2006.5" xlink:href="#a"/><linearGradient id="em" x1="2003.91" y1="486.11" x2="151.91" y2="2112.11" gradientTransform="matrix(1 0 0 -1 -36.5 2523.79)" xlink:href="#a"/><linearGradient id="en" x1="2001.9" y1="483.82" x2="149.9" y2="2109.82" gradientTransform="matrix(1 0 0 -1 -36.5 2523.79)" xlink:href="#a"/><linearGradient id="eo" x1="1890.48" y1="356.91" x2="38.48" y2="1982.91" xlink:href="#a"/><linearGradient id="ep" x1="1763.43" y1="212.2" x2="-88.57" y2="1838.2" xlink:href="#a"/><linearGradient id="eq" x1="1804.85" y1="259.38" x2="-47.15" y2="1885.38" gradientTransform="matrix(1 0 0 -1 -36.5 2523.79)" xlink:href="#a"/><linearGradient id="er" x1="2011.87" y1="495.17" x2="159.87" y2="2121.17" xlink:href="#a"/><linearGradient id="es" x1="1801.43" y1="255.48" x2="-50.57" y2="1881.48" xlink:href="#a"/><linearGradient id="et" x1="1789.03" y1="241.36" x2="-62.97" y2="1867.36" xlink:href="#a"/><linearGradient id="eu" x1="2252.1" y1="768.79" x2="400.1" y2="2394.79" xlink:href="#a"/><linearGradient id="ev" x1="2882" y1="1486.24" x2="1030" y2="3112.24" xlink:href="#a"/><linearGradient id="ew" x1="2727.64" y1="1310.43" x2="875.64" y2="2936.43" xlink:href="#a"/><linearGradient id="ex" x1="2020.57" y1="505.08" x2="168.57" y2="2131.08" xlink:href="#a"/><linearGradient id="ey" x1="2860.91" y1="1462.22" x2="1008.91" y2="3088.22" xlink:href="#a"/><linearGradient id="ez" x1="2706.51" y1="1286.36" x2="854.51" y2="2912.36" xlink:href="#a"/><linearGradient id="fa" x1="2762.11" y1="1349.69" x2="910.11" y2="2975.69" xlink:href="#a"/><linearGradient id="fb" x1="2497.31" y1="1048.08" x2="645.31" y2="2674.08" xlink:href="#a"/><linearGradient id="fc" x1="2530.58" y1="1085.97" x2="678.58" y2="2711.97" xlink:href="#a"/><linearGradient id="fd" x1="2612.49" y1="1179.28" x2="760.49" y2="2805.27" xlink:href="#a"/><linearGradient id="fe" x1="2665.75" y1="1239.93" x2="813.75" y2="2865.93" gradientTransform="matrix(1 0 0 -1 -36.5 2523.79)" xlink:href="#a"/><linearGradient id="ff" x1="2607.75" y1="1173.88" x2="755.75" y2="2799.88" xlink:href="#a"/><linearGradient id="fg" x1="2573.24" y1="1134.57" x2="721.24" y2="2760.57" xlink:href="#a"/><linearGradient id="fh" x1="2204.29" y1="714.34" x2="352.29" y2="2340.34" xlink:href="#a"/><linearGradient id="fi" x1="2205.21" y1="715.39" x2="353.21" y2="2341.39" gradientTransform="matrix(1 0 0 -1 -36.5 2523.79)" xlink:href="#a"/><linearGradient id="fj" x1="2071.17" y1="562.72" x2="219.17" y2="2188.72" xlink:href="#a"/><linearGradient id="fk" x1="1995.26" y1="476.25" x2="143.26" y2="2102.25" gradientTransform="matrix(1 0 0 -1 -36.5 2523.79)" xlink:href="#a"/><linearGradient id="fl" x1="2147.09" y1="649.18" x2="295.09" y2="2275.18" gradientTransform="matrix(1 0 0 -1 -36.5 2523.79)" xlink:href="#a"/><linearGradient id="fm" x1="2095.14" y1="590.01" x2="243.14" y2="2216.01" xlink:href="#a"/><linearGradient id="fn" x1="2021.26" y1="505.86" x2="169.26" y2="2131.86" gradientTransform="matrix(1 0 0 -1 -36.5 2523.79)" xlink:href="#a"/><linearGradient id="fo" x1="2002.41" y1="484.4" x2="150.41" y2="2110.4" gradientTransform="matrix(1 0 0 -1 -36.5 2523.79)" xlink:href="#a"/></defs><title>product-sms-bg-1</title><g class="a"><path class="b" d="M681.3 1638.8h-4a28.1 28.1 0 0 0-28-28H331v-4h318.3a32 32 0 0 1 32 32z"/><path class="c" d="M331.9 1601.5v14.6l-7.2-7.3 7.2-7.3z"/><path class="d" d="M1358.5 1878.6h-117.3a32.1 32.1 0 0 1-32-32v-207.8a32.1 32.1 0 0 1 32-32h111v4h-111a28.1 28.1 0 0 0-28 28v207.8a28.1 28.1 0 0 0 28 28h117.3a28.1 28.1 0 0 0 28-28h4a32 32 0 0 1-32 32z"/><path class="e" d="M1351.3 1601.5v14.6l7.2-7.3-7.2-7.3z"/><path class="f" d="M2454.4 484.5h-4V299.8a28.1 28.1 0 0 0-28-28h-117.3a28.1 28.1 0 0 0-28 28h-4a32.1 32.1 0 0 1 32-32h117.3a32.1 32.1 0 0 1 32 32v184.7z"/><path class="g" d="M2445.1 483.5h14.6l-7.3 7.3-7.3-7.3z"/><path class="h" d="M1390.5 364.1h-4v-64.3a32.1 32.1 0 0 1 32-32h117.3a32.1 32.1 0 0 1 32 32h-4a28.1 28.1 0 0 0-28-28h-117.3a28.1 28.1 0 0 0-28 28v64.3z"/><path class="i" d="M643 539.6H532a32.1 32.1 0 0 1-32-32h4a28.1 28.1 0 0 0 28 28h111v4z"/><path class="j" d="M642 544.9v-14.6l7.3 7.3-7.3 7.3z"/><path class="k" d="M149.3 484.5h-4V299.8a32.1 32.1 0 0 1 32-32h111v4h-111a28.1 28.1 0 0 0-28 28v184.7z"/><path class="l" d="M140.1 483.5h14.5l-7.3 7.3-7.2-7.3z"/><path class="m" d="M287.4 262.5v14.6l7.3-7.3-7.3-7.3z"/><path class="n" d="M1950.5 539.6a32.1 32.1 0 0 1-32-32V299.8h4v207.8a28.1 28.1 0 0 0 28 28v4z"/><g class="o"><path class="p" d="M1299.9 783a12.7 12.7 0 1 1 12.7-12.7 12.7 12.7 0 0 1-12.7 12.7zm0-23.4a10.7 10.7 0 1 0 10.7 10.7 10.7 10.7 0 0 0-10.7-10.7z"/></g><g class="o"><path class="q" d="M1122.6 783a12.7 12.7 0 1 1 12.7-12.7 12.7 12.7 0 0 1-12.7 12.7zm0-23.4a10.7 10.7 0 1 0 10.7 10.7 10.7 10.7 0 0 0-10.7-10.7z"/></g><g class="o"><path class="r" d="M1299.9 1854.2a12.7 12.7 0 1 1 12.7-12.7 12.7 12.7 0 0 1-12.7 12.7zm0-23.4a10.7 10.7 0 1 0 10.7 10.7 10.7 10.7 0 0 0-10.7-10.7z"/></g><g class="o"><path class="s" d="M1122.6 1854.2a12.7 12.7 0 1 1 12.7-12.7 12.7 12.7 0 0 1-12.7 12.7zm0-23.4a10.7 10.7 0 1 0 10.7 10.7 10.7 10.7 0 0 0-10.7-10.7z"/></g><g class="o"><path class="t" d="M945.3 515.2a12.7 12.7 0 1 1 12.7-12.7 12.7 12.7 0 0 1-12.7 12.7zm0-23.4a10.7 10.7 0 1 0 10.7 10.7 10.7 10.7 0 0 0-10.7-10.7z"/></g><g class="o"><path class="u" d="M590.6 515.2a12.7 12.7 0 1 1 12.7-12.7 12.7 12.7 0 0 1-12.7 12.7zm0-23.4a10.7 10.7 0 1 0 10.7 10.7 10.7 10.7 0 0 0-10.7-10.7z"/></g><g class="o"><path class="v" d="M590.6 783a12.7 12.7 0 1 1 12.7-12.7 12.7 12.7 0 0 1-12.7 12.7zm0-23.4a10.7 10.7 0 1 0 10.7 10.7 10.7 10.7 0 0 0-10.7-10.7z"/></g><g class="o"><path class="w" d="M413.3 783a12.7 12.7 0 1 1 12.7-12.7 12.7 12.7 0 0 1-12.7 12.7zm0-23.4a10.7 10.7 0 1 0 10.7 10.7 10.7 10.7 0 0 0-10.7-10.7z"/></g><g class="o"><path class="x" d="M413.3 1050.8a12.7 12.7 0 1 1 12.7-12.7 12.7 12.7 0 0 1-12.7 12.7zm0-23.4a10.7 10.7 0 1 0 10.7 10.7 10.7 10.7 0 0 0-10.7-10.7z"/></g><g class="o"><path class="y" d="M413.3 1318.6a12.7 12.7 0 1 1 12.7-12.7 12.7 12.7 0 0 1-12.7 12.7zm0-23.4a10.7 10.7 0 1 0 10.7 10.7 10.7 10.7 0 0 0-10.7-10.7z"/></g><g class="o"><path class="z" d="M767.9 1318.6a12.7 12.7 0 1 1 12.7-12.7 12.7 12.7 0 0 1-12.7 12.7zm0-23.4a10.7 10.7 0 1 0 10.7 10.7 10.7 10.7 0 0 0-10.7-10.7z"/></g><g class="o"><path class="aa" d="M1654.5 1318.6a12.7 12.7 0 1 1 12.7-12.7 12.7 12.7 0 0 1-12.7 12.7zm0-23.4a10.7 10.7 0 1 0 10.7 10.7 10.7 10.7 0 0 0-10.7-10.7z"/></g><g class="o"><path class="ab" d="M1831.8 1318.6a12.7 12.7 0 1 1 12.7-12.7 12.7 12.7 0 0 1-12.7 12.7zm0-23.4a10.7 10.7 0 1 0 10.7 10.7 10.7 10.7 0 0 0-10.7-10.7z"/></g><g class="o"><path class="ac" d="M1831.8 1050.8a12.7 12.7 0 1 1 12.7-12.7 12.7 12.7 0 0 1-12.7 12.7zm0-23.4a10.7 10.7 0 1 0 10.7 10.7 10.7 10.7 0 0 0-10.7-10.7z"/></g><g class="o"><path class="ad" d="M2186.5 1050.8a12.7 12.7 0 1 1 12.7-12.7 12.7 12.7 0 0 1-12.7 12.7zm0-23.4a10.7 10.7 0 1 0 10.7 10.7 10.7 10.7 0 0 0-10.7-10.7z"/></g><g class="o"><path class="ae" d="M236 1050.8a12.7 12.7 0 1 1 12.7-12.7 12.7 12.7 0 0 1-12.7 12.7zm0-23.4a10.7 10.7 0 1 0 10.7 10.7 10.7 10.7 0 0 0-10.7-10.7z"/></g><path class="af" d="M1890.5 539.6h-111v-4h111a28.1 28.1 0 0 0 28-28V299.8a28.1 28.1 0 0 0-28-28h-117.3a28.1 28.1 0 0 0-28 28v207.8a32.1 32.1 0 0 1-32 32v-4a28.1 28.1 0 0 0 28-28V299.8a32.1 32.1 0 0 1 32-32h117.3a32.1 32.1 0 0 1 32 32v207.8a32.1 32.1 0 0 1-32 32z"/><path class="ag" d="M1780.5 544.9v-14.6l-7.3 7.3 7.3 7.3z"/><path class="ah" d="M1595.9 539.6a32.1 32.1 0 0 1-32-32V299.8a32.1 32.1 0 0 1 32-32v4a28.1 28.1 0 0 0-28 28v207.8a28.1 28.1 0 0 0 28 28v4z"/><path class="ai" d="M532 271.8a32.1 32.1 0 0 1-32-32h4a28.1 28.1 0 0 0 28 28v4z"/><path class="aj" d="M472 271.8H354.7a32.1 32.1 0 0 1-32-32v-92.4h4v92.4a28.1 28.1 0 0 0 28 28H472a28.1 28.1 0 0 0 28-28V2h4v237.8a32.1 32.1 0 0 1-32 32z"/><path class="ak" d="M331.9 148.3h-14.5l7.3-7.2 7.2 7.2z"/><path class="al" d="M1713.2 271.8h-117.3a32.1 32.1 0 0 1-32-32V32a28.1 28.1 0 0 0-28-28h-117.3a28.1 28.1 0 0 0-28 28v206.8h-4V32a32.1 32.1 0 0 1 32-32h117.3a32.1 32.1 0 0 1 32 32v207.8a28.1 28.1 0 0 0 28 28h117.3a28.1 28.1 0 0 0 28-28v-86.4h4v86.4a32.1 32.1 0 0 1-32 32z"/><path class="am" d="M1381.3 237.8h14.5l-7.3 7.3-7.2-7.3z"/><path class="an" d="M1735.9 154.3h14.6l-7.3-7.2-7.3 7.2z"/><path class="ao" d="M326.7 769.1h-4V567.6a28.1 28.1 0 0 0-28-28H177.4a28.1 28.1 0 0 0-28 28h-4a32.1 32.1 0 0 1 32-32h117.3a32.1 32.1 0 0 1 32 32v201.5z"/><path class="ap" d="M331.9 768.1h-14.5l7.3 7.3 7.2-7.3z"/><path class="aq" d="M117.3 807.4H6.3v-4h111a28.1 28.1 0 0 0 28-28V567.6a28.2 28.2 0 0 0-22.1-27.4l.8-3.9a32.2 32.2 0 0 1 25.3 31.3v207.8a32 32 0 0 1-32 32z"/><path class="ar" d="M125.5 531.2l-1.8 14.5-6.4-8.1 8.2-6.4z"/><path class="as" d="M7.3 812.7v-14.6L0 805.4l7.3 7.3z"/><path class="at" d="M117.3 1075.2H40.2v-4h77.1a28.1 28.1 0 0 0 28-28h4a32 32 0 0 1-32 32z"/><path class="au" d="M41.2 1080.5v-14.6l-7.3 7.3 7.3 7.3z"/><path class="av" d="M2067.8 807.4h-111v-4h111a28.1 28.1 0 0 0 28-28V573.9h4v201.5a32.1 32.1 0 0 1-32 32z"/><path class="aw" d="M2105.1 574.9h-14.6l7.3-7.3 7.3 7.3z"/><path class="ax" d="M1957.8 812.7v-14.6l-7.3 7.3 7.3 7.3z"/><path class="ay" d="M1922.5 769.1h-4V567.6a32.1 32.1 0 0 1 32-32l122.4-.5a28 28 0 0 0 22.9-27.5V299.8a28.1 28.1 0 0 0-28-28h-111v-4h111a32.1 32.1 0 0 1 32 32v207.8a32 32 0 0 1-26.4 31.5h-.3l-122.6.5a28.1 28.1 0 0 0-28 28v201.5z"/><path class="az" d="M1913.2 768.1h14.6l-7.3 7.3-7.3-7.3z"/><path class="ba" d="M1957.8 277.1v-14.6l-7.3 7.3 7.3 7.3z"/><path class="bb" d="M1713.2 807.4h-117.3v-4h117.3a28.1 28.1 0 0 0 28-28V567.6a28.1 28.1 0 0 0-28-28h-117.3a28.1 28.1 0 0 0-28 28v207.8a32.1 32.1 0 0 1-32 32h-117.3a32.1 32.1 0 0 1-32-32h4a28.1 28.1 0 0 0 28 28h117.3a28.1 28.1 0 0 0 28-28V567.6a32.1 32.1 0 0 1 32-32h117.3a32.1 32.1 0 0 1 32 32v207.8a32.1 32.1 0 0 1-32 32z"/><path class="bc" d="M1358.5 807.4h-117.3a32.1 32.1 0 0 1-32-32h4a28.1 28.1 0 0 0 28 28h117.3a28.1 28.1 0 0 0 28-28V587.1h4v188.3a32 32 0 0 1-32 32z"/><path class="bd" d="M649.3 1075.2H532v-4h117.3a28.1 28.1 0 0 0 28-28V835.4a28.1 28.1 0 0 0-28-28H532a28.1 28.1 0 0 0-28 28h-4a32.1 32.1 0 0 1 32-32h117.3a32.1 32.1 0 0 1 32 32v207.8a32.1 32.1 0 0 1-32 32z"/><path class="be" d="M504 990.5h-4V835.4a28.1 28.1 0 0 0-28-28H361v-4h111a32.1 32.1 0 0 1 32 32v155.1z"/><path class="bf" d="M361.9 798.1v14.6l-7.2-7.3 7.2-7.3z"/><path class="bg" d="M509.3 989.5h-14.6l7.3 7.3 7.3-7.3z"/><path class="bh" d="M183.7 803.4h104.7v4H183.7z"/><path class="bi" d="M184.6 798.1v14.6l-7.3-7.3 7.3-7.3z"/><path class="bj" d="M287.4 798.1v14.6l7.3-7.3-7.3-7.3z"/><path class="bk" d="M2488.7 535.6h104.7v4h-104.7z"/><path class="bl" d="M2489.7 530.3v14.6l-7.3-7.3 7.3-7.3z"/><path class="bm" d="M2592.5 530.3v14.6l7.2-7.3-7.2-7.3z"/><path class="bn" d="M472 1075.2H354.7a32.1 32.1 0 0 1-32-32V841.7h4v201.5a28.1 28.1 0 0 0 28 28H472v4z"/><path class="bo" d="M317.4 842.7h14.5l-7.2-7.3-7.3 7.3z"/><path class="bp" d="M288.3 1075.2h-111a32.1 32.1 0 0 1-32-32V906.9h4v136.2a28.1 28.1 0 0 0 28 28h111v4.1z"/><path class="bq" d="M287.4 1080.5v-14.6l7.3 7.3-7.3 7.3z"/><path class="br" d="M140.1 907.9h14.5l-7.3-7.3-7.2 7.3z"/><path class="bs" d="M1890.5 1075.2h-117.3a32.1 32.1 0 0 1-32-32V835.4a32.1 32.1 0 0 1 32-32h117.3a32.1 32.1 0 0 1 32 32v207.8a32.1 32.1 0 0 1-32 32zm-117.3-267.8a28.1 28.1 0 0 0-28 28v207.8a28.1 28.1 0 0 0 28 28h117.3a28.1 28.1 0 0 0 28-28V835.4a28.1 28.1 0 0 0-28-28h-117.3z"/><path class="bt" d="M1535.9 1075.2h-117.3a32.1 32.1 0 0 1-32-32V835.4h4v207.8a28.1 28.1 0 0 0 28 28h117.3a28.1 28.1 0 0 0 28-28V835.4a28.1 28.1 0 0 0-28-28h-117.3v-4h117.3a32.1 32.1 0 0 1 32 32v207.8a32.1 32.1 0 0 1-32 32z"/><path class="bu" d="M649.3 1343H532a32.1 32.1 0 0 1-32-32v-207.8a32.1 32.1 0 0 1 32-32h117.3a32.1 32.1 0 0 1 32 32v201.5h-4v-201.5a28.1 28.1 0 0 0-28-28H532a28.1 28.1 0 0 0-28 28V1311a28.1 28.1 0 0 0 28 28h117.3v4z"/><path class="bv" d="M686.6 1303.7H672l7.3 7.3 7.3-7.3z"/><path class="bw" d="M348 1342.3a32.2 32.2 0 0 1-25.3-31.3v-207.8a32.1 32.1 0 0 1 32-32H472a32.1 32.1 0 0 1 32 32h-4a28.1 28.1 0 0 0-28-28H354.7a28.1 28.1 0 0 0-28 28V1311a28.2 28.2 0 0 0 22.1 27.4z"/><path class="bx" d="M346.6 1347.3l1.7-14.4 6.4 8.1-8.1 6.3z"/><path class="by" d="M2238.8 539.6h-111a32.1 32.1 0 0 1-32-32V299.8a32.1 32.1 0 0 1 32-32h117.3a32.1 32.1 0 0 1 32 32v201.5h-4V299.8a28.1 28.1 0 0 0-28-28h-117.3a28.1 28.1 0 0 0-28 28v207.8a28.1 28.1 0 0 0 28 28h111v4z"/><path class="bz" d="M2267.8 500.3h14.6l-7.3 7.3-7.3-7.3z"/><path class="ca" d="M2237.8 530.3v14.6l7.3-7.3-7.3-7.3z"/><path class="cb" d="M2245.1 271.8h-117.3a32.1 32.1 0 0 1-32-32V32h4v207.8a28.1 28.1 0 0 0 28 28h117.3a28.1 28.1 0 0 0 28-28v-72.1h4v72.1a32 32 0 0 1-32 32z"/><path class="cc" d="M2267.8 168.6h14.6l-7.3-7.3-7.3 7.3z"/><path class="cd" d="M2245.1 807.4v-4a28.1 28.1 0 0 0 28-28h4a32 32 0 0 1-32 32z"/><path class="ce" d="M2416.1 807.4h-111a32.1 32.1 0 0 1-32-32V573.9h4v201.5a28.1 28.1 0 0 0 28 28h111v4z"/><path class="cf" d="M2282.4 574.9h-14.6l7.3-7.3 7.3 7.3z"/><path class="cg" d="M2415.1 798.1v14.6l7.3-7.3-7.3-7.3z"/><path class="ch" d="M2593.4 807.4h-111a32.1 32.1 0 0 1-32-32V567.6a28.1 28.1 0 0 0-28-28h-111v-4h111a32.1 32.1 0 0 1 32 32v207.8a28.1 28.1 0 0 0 28 28h111v4z"/><path class="ci" d="M2592.5 812.7v-14.6l7.2 7.3-7.2 7.3z"/><path class="cj" d="M2312.4 544.9v-14.6l-7.3 7.3 7.3 7.3z"/><path class="ck" d="M1358.5 2146.4h-117.3a32.1 32.1 0 0 1-32-32h4a28.1 28.1 0 0 0 28 28h117.3a28.1 28.1 0 0 0 28-28v-136.2h4v136.2a32 32 0 0 1-32 32z"/><path class="cl" d="M1381.3 1979.1h14.5l-7.3-7.3-7.2 7.3z"/><path class="cm" d="M2245.1 1343h-123.9v-4h123.9a28.1 28.1 0 0 0 28-28v-207.8a28.1 28.1 0 0 0-28-28h-117.3a32.1 32.1 0 0 1-32-32V835.4a32.1 32.1 0 0 1 32-32h117.3a32.1 32.1 0 0 1 32 32v207.8a28.1 28.1 0 0 0 28 28h117.3a28.1 28.1 0 0 0 28-28V906.9h4v136.2a32.1 32.1 0 0 1-32 32h-117.3a32.1 32.1 0 0 1-32-32V835.3a28.1 28.1 0 0 0-28-28h-117.3a28.1 28.1 0 0 0-28 28v207.8a28.1 28.1 0 0 0 28 28h117.3a32.1 32.1 0 0 1 32 32v207.8a32.1 32.1 0 0 1-32 32.1z"/><path class="cn" d="M2459.7 907.9h-14.6l7.3-7.3 7.3 7.3z"/><path class="co" d="M2122.2 1348.3v-14.6l-7.3 7.3 7.3 7.3z"/><path class="cp" d="M1713.2 1343h-117.3a32.1 32.1 0 0 1-32-32v-207.8a32.1 32.1 0 0 1 32-32h117.3a32.1 32.1 0 0 1 32 32V1311a32.1 32.1 0 0 1-32 32zm-117.3-267.8a28.1 28.1 0 0 0-28 28V1311a28.1 28.1 0 0 0 28 28h117.3a28.1 28.1 0 0 0 28-28v-207.8a28.1 28.1 0 0 0-28-28h-117.3z"/><path class="cq" d="M1535.9 1343h-117.3a32.1 32.1 0 0 1-32-32v-207.8a28.1 28.1 0 0 0-28-28h-117.3a28.1 28.1 0 0 0-28 28V1311a28.1 28.1 0 0 0 28 28h111v4h-111a32.1 32.1 0 0 1-32-32v-207.8a32.1 32.1 0 0 1 32-32h117.3a32 32 0 0 1 30 20.9 32 32 0 0 1 30-20.9h117.3a32.1 32.1 0 0 1 32 32V1311a32.1 32.1 0 0 1-32 32zm-145.4-239.8V1311a28.1 28.1 0 0 0 28 28h117.3a28.1 28.1 0 0 0 28-28v-207.8a28.1 28.1 0 0 0-28-28h-117.3a28 28 0 0 0-28 28z"/><path class="cr" d="M1351.3 1348.3v-14.6l7.2 7.3-7.2 7.3z"/><path class="cs" d="M1922.5 1371h-4a32.1 32.1 0 0 1 32-32h117.3a28.1 28.1 0 0 0 28-28v-207.8a28.1 28.1 0 0 0-28-28h-117.3a28.1 28.1 0 0 0-28 28v201.5h-4v-201.5a32.1 32.1 0 0 1 32-32h117.3a32.1 32.1 0 0 1 32 32V1311a32.1 32.1 0 0 1-32 32h-117.3a28 28 0 0 0-28 28z"/><path class="ct" d="M1927.8 1303.7h-14.6l7.3 7.3 7.3-7.3z"/><path class="cu" d="M2245.1 1610.8h-117.3a32.1 32.1 0 0 1-32-32v-201.5h4v201.5a28.1 28.1 0 0 0 28 28h117.3a28.1 28.1 0 0 0 28-28V1371a32.1 32.1 0 0 1 32-32h111v4h-111a28.1 28.1 0 0 0-28 28v207.8a32 32 0 0 1-32 32z"/><path class="cv" d="M2415.1 1348.3v-14.6l7.3 7.3-7.3 7.3z"/><path class="cw" d="M2090.5 1378.2h14.6l-7.3-7.2-7.3 7.2z"/><path class="cx" d="M1535.9 1610.8h-117.3a32.1 32.1 0 0 1-32-32V1371a32.1 32.1 0 0 1 32-32h117.3a32.1 32.1 0 0 1 32 32v207.8a32.1 32.1 0 0 1-32 32zM1418.5 1343a28.1 28.1 0 0 0-28 28v207.8a28.1 28.1 0 0 0 28 28h117.3a28.1 28.1 0 0 0 28-28V1371a28.1 28.1 0 0 0-28-28h-117.3z"/><path class="cy" d="M858.6 299.8h-4a28.1 28.1 0 0 0-28-28H709.3v-4h117.3a32 32 0 0 1 32 32z"/><path class="cz" d="M858.6 503.3h-4V299.8a32.1 32.1 0 0 1 32-32h117.3a32.1 32.1 0 0 1 32 32v64.3h-4v-64.3a28.1 28.1 0 0 0-28-28H886.6a28.1 28.1 0 0 0-28 28v203.5z"/><path class="da" d="M863.9 502.3h-14.6l7.3 7.3 7.3-7.3z"/><path class="db" d="M1003.9 271.8H886.6a32.1 32.1 0 0 1-32-32V32a32.1 32.1 0 0 1 32-32h117.3a32.1 32.1 0 0 1 32 32h-4a28.1 28.1 0 0 0-28-28H886.6a28.1 28.1 0 0 0-28 28v207.8a28.1 28.1 0 0 0 28 28h117.3v4z"/><path class="dc" d="M1181.2 539.6h-111v-4h111a28.1 28.1 0 0 0 28-28h4a32 32 0 0 1-32 32z"/><path class="dd" d="M1071.2 530.3v14.6l-7.3-7.3 7.3-7.3z"/><path class="de" d="M1035.9 507.6h-4V299.8a32.1 32.1 0 0 1 32-32h117.3a28.1 28.1 0 0 0 28-28V32a28.1 28.1 0 0 0-28-28h-117.3a28.1 28.1 0 0 0-28 28v201.5h-4V32a32.1 32.1 0 0 1 32-32h117.3a32.1 32.1 0 0 1 32 32v207.8a32.1 32.1 0 0 1-32 32h-117.3a28.1 28.1 0 0 0-28 28v207.8z"/><path class="df" d="M1041.2 232.5h-14.6l7.3 7.3 7.3-7.3z"/><path class="dg" d="M681.3 233.5h-4V32a32.1 32.1 0 0 1 32-32h117.3a32.2 32.2 0 0 1 31.3 25.3l-3.9.8A28.2 28.2 0 0 0 826.6 4H709.3a28.1 28.1 0 0 0-28 28v201.5z"/><path class="dh" d="M848.5 25.6l14.5-1.7-6.4 8.1-8.1-6.4z"/><path class="di" d="M686.6 232.5H672l7.3 7.3 7.3-7.3z"/><g class="o"><path class="dj" d="M767.9 247.4a12.7 12.7 0 1 1 12.7-12.7 12.7 12.7 0 0 1-12.7 12.7zm0-23.4a10.7 10.7 0 1 0 10.7 10.7 10.7 10.7 0 0 0-10.7-10.7z"/></g><path class="dk" d="M858.6 697.3h-4V567.6a28.1 28.1 0 0 0-28-28h-111v-4h111a32.1 32.1 0 0 1 32 32v129.7z"/><path class="dl" d="M716.6 544.9v-14.6l-7.3 7.3 7.3 7.3z"/><path class="dm" d="M826.6 807.4H709.3a32.1 32.1 0 0 1-32-32V573.9h4v201.5a28.1 28.1 0 0 0 28 28h117.3v4z"/><path class="dn" d="M686.6 574.9H672l7.3-7.3 7.3 7.3z"/><path class="do" d="M1003.9 807.4H886.6v-4h117.3a28.1 28.1 0 0 0 28-28h4a32 32 0 0 1-32 32z"/><path class="dp" d="M854.6 567.6h4v148h-4z"/><path class="dq" d="M1181.2 807.4h-117.3a32.1 32.1 0 0 1-32-32V567.6a28.1 28.1 0 0 0-28-28H886.6a28.1 28.1 0 0 0-28 28v201.5h-4V567.6a32.1 32.1 0 0 1 32-32h117.3a32.1 32.1 0 0 1 32 32v207.8a28.1 28.1 0 0 0 28 28h117.3a28.1 28.1 0 0 0 28-28V573.9h4v201.5a32 32 0 0 1-32 32z"/><path class="dr" d="M1218.5 574.9h-14.6l7.3-7.3 7.3 7.3z"/><path class="ds" d="M863.9 768.1h-14.6l7.3 7.3 7.3-7.3z"/><path class="dt" d="M826.6 1075.2H709.3a32.1 32.1 0 0 1-32-32V835.4a32.1 32.1 0 0 1 32-32h117.3a32.1 32.1 0 0 1 32 32v207.8a32.1 32.1 0 0 1-32 32zM709.3 807.4a28.1 28.1 0 0 0-28 28v207.8a28.1 28.1 0 0 0 28 28h117.3a28.1 28.1 0 0 0 28-28V835.4a28.1 28.1 0 0 0-28-28H709.3z"/><path class="du" d="M1003.9 1075.2H886.6a32.1 32.1 0 0 1-32-32V835.4a32.1 32.1 0 0 1 32-32h117.3v4H886.6a28.1 28.1 0 0 0-28 28v207.8a28.1 28.1 0 0 0 28 28h117.3a28.1 28.1 0 0 0 28-28V835.4h4v207.8a32 32 0 0 1-32 32z"/><path class="dv" d="M1181.2 1075.2h-117.3a32.1 32.1 0 0 1-32-32V835.4a32.1 32.1 0 0 1 32-32h117.3v4h-117.3a28.1 28.1 0 0 0-28 28v207.8a28.1 28.1 0 0 0 28 28h117.3a28.1 28.1 0 0 0 28-28V835.4h4v207.8a32 32 0 0 1-32 32z"/><path class="dw" d="M1003.9 1343H886.6a32.1 32.1 0 0 1-32-32v-207.8a32.1 32.1 0 0 1 32-32h117.3a32.1 32.1 0 0 1 32 32V1311a32 32 0 0 1-32 32zm-117.3-267.8a28.1 28.1 0 0 0-28 28V1311a28.1 28.1 0 0 0 28 28h117.3a28.1 28.1 0 0 0 28-28v-207.8a28.1 28.1 0 0 0-28-28H886.6z"/><path class="dx" d="M681.3 1760.7h-4v-389.8a28.1 28.1 0 0 0-28-28H532a28.1 28.1 0 0 0-28 28v164.7h-4v-164.7a32.1 32.1 0 0 1 32-32h117.3a32.1 32.1 0 0 1 32 32v389.8z"/><path class="dy" d="M494.7 1534.7h14.6l-7.3 7.3-7.3-7.3z"/><path class="dz" d="M686.6 1759.8H672l7.3 7.3 7.3-7.3z"/><path class="ea" d="M1567.9 2095.9h-4v-457.1a32.1 32.1 0 0 1 32-32h111v4h-111a28.1 28.1 0 0 0-28 28v457.1z"/><path class="eb" d="M1558.6 2094.9h14.5l-7.2 7.3-7.3-7.3z"/><path class="ec" d="M1705.9 1601.5v14.6l7.3-7.3-7.3-7.3z"/><path class="ed" d="M1535.9 1878.6h-117.3a32.1 32.1 0 0 1-32-32v-207.8a32.1 32.1 0 0 1 32-32h117.3a32.1 32.1 0 0 1 32 32v207.8a32.1 32.1 0 0 1-32 32zm-117.4-267.8a28.1 28.1 0 0 0-28 28v207.8a28.1 28.1 0 0 0 28 28h117.3a28.1 28.1 0 0 0 28-28v-207.8a28.1 28.1 0 0 0-28-28h-117.3z"/><path class="ee" d="M1358.5 2146.4h-117.3a32.1 32.1 0 0 1-32-32v-207.8a32.1 32.1 0 0 1 32-32v4a28.1 28.1 0 0 0-28 28v207.8a28.1 28.1 0 0 0 28 28h117.3v4z"/><path class="ef" d="M1035.9 2014.9h-4v-376.1a28.1 28.1 0 0 0-28-28H886.6a28.1 28.1 0 0 0-28 28v207.8a28.1 28.1 0 0 0 28 28h111v4h-111a32.1 32.1 0 0 1-32-32v-207.8a32.1 32.1 0 0 1 32-32h117.3a32.1 32.1 0 0 1 32 32v376.1z"/><path class="eg" d="M1026.6 2013.9h14.6l-7.3 7.3-7.3-7.3z"/><path class="eh" d="M996.6 1869.3v14.6l7.3-7.3-7.3-7.3z"/><path class="ei" d="M643 1878.6H532a32.1 32.1 0 0 1-32-32v-201.5h4v201.5a28.1 28.1 0 0 0 28 28h111v4z"/><path class="ej" d="M509.3 1646h-14.6l7.3-7.2 7.3 7.2z"/><path class="ek" d="M642 1869.3v14.6l7.3-7.3-7.3-7.3z"/><path class="el" d="M2099.8 2074.4h-4v-435.7a28.1 28.1 0 0 0-28-28h-117.3a32.1 32.1 0 0 1-32-32v-207.8a28.1 28.1 0 0 0-28-28h-117.3a28.1 28.1 0 0 0-28 28v207.8a28.1 28.1 0 0 0 28 28v4a32.1 32.1 0 0 1-32-32v-207.8a32.1 32.1 0 0 1 32-32h117.3a32.1 32.1 0 0 1 32 32v207.8a28.1 28.1 0 0 0 28 28h117.3a32.1 32.1 0 0 1 32 32v435.7z"/><path class="em" d="M2105.1 2073.5h-14.6l7.3 7.2 7.3-7.2z"/><path class="en" d="M1181.2 1610.8h-117.3a32.1 32.1 0 0 1-32-32V1371a32.1 32.1 0 0 1 32-32h111v4h-111a28.1 28.1 0 0 0-28 28v207.8a28.1 28.1 0 0 0 28 28h117.3a28.1 28.1 0 0 0 28-28v-201.5h4v201.5a32 32 0 0 1-32 32z"/><path class="eo" d="M1173.9 1348.3v-14.6l7.3 7.3-7.3 7.3z"/><path class="ep" d="M1203.9 1378.2h14.6l-7.3-7.2-7.3 7.2z"/><path class="eq" d="M858.6 1371h-4a32.1 32.1 0 0 1 32-32h117.3v4H886.6a28 28 0 0 0-28 28z"/><path class="er" d="M826.6 1610.8H709.3v-4h117.3a28.1 28.1 0 0 0 28-28V1371a28.1 28.1 0 0 0-28-28h-111v-4h111a32.1 32.1 0 0 1 32 32v207.8a32.1 32.1 0 0 1-32 32z"/><path class="es" d="M716.6 1348.3v-14.6l-7.3 7.3 7.3 7.3z"/><g class="o"><path class="et" d="M236 514.2a12.7 12.7 0 1 1 12.7-12.7 12.7 12.7 0 0 1-12.7 12.7zm0-23.4a10.7 10.7 0 1 0 10.7 10.7 10.7 10.7 0 0 0-10.7-10.7z"/></g><g class="o"><path class="eu" d="M58.7 783a12.7 12.7 0 1 1 12.7-12.7A12.7 12.7 0 0 1 58.7 783zm0-23.4a10.7 10.7 0 1 0 10.7 10.7 10.7 10.7 0 0 0-10.7-10.7z"/></g><g class="o"><path class="ev" d="M945.3 1586.4a12.7 12.7 0 1 1 12.7-12.7 12.7 12.7 0 0 1-12.7 12.7zm0-23.4a10.7 10.7 0 1 0 10.7 10.7 10.7 10.7 0 0 0-10.7-10.7z"/></g><g class="o"><path class="ew" d="M2009.1 1586.4a12.7 12.7 0 1 1 12.7-12.7 12.7 12.7 0 0 1-12.7 12.7zm0-23.4a10.7 10.7 0 1 0 10.7 10.7 10.7 10.7 0 0 0-10.7-10.7z"/></g><g class="o"><path class="ex" d="M2541.1 783a12.7 12.7 0 1 1 12.7-12.7 12.7 12.7 0 0 1-12.7 12.7zm0-23.4a10.7 10.7 0 1 0 10.7 10.7 10.7 10.7 0 0 0-10.7-10.7z"/></g><g class="o"><path class="ey" d="M2186.5 783a12.7 12.7 0 1 1 12.7-12.7 12.7 12.7 0 0 1-12.7 12.7zm0-23.4a10.7 10.7 0 1 0 10.7 10.7 10.7 10.7 0 0 0-10.7-10.7z"/></g><g class="o"><path class="ez" d="M1477.2 1586.4a12.7 12.7 0 1 1 12.7-12.7 12.7 12.7 0 0 1-12.7 12.7zm0-23.4a10.7 10.7 0 1 0 10.7 10.7 10.7 10.7 0 0 0-10.7-10.7z"/></g><g class="o"><path class="fa" d="M2186.5 514.2a12.7 12.7 0 1 1 12.7-12.7 12.7 12.7 0 0 1-12.7 12.7zm0-23.4a10.7 10.7 0 1 0 10.7 10.7 10.7 10.7 0 0 0-10.7-10.7z"/></g><g class="o"><path class="fb" d="M1831.8 514.2a12.7 12.7 0 1 1 12.7-12.7 12.7 12.7 0 0 1-12.7 12.7zm0-23.4a10.7 10.7 0 1 0 10.7 10.7 10.7 10.7 0 0 0-10.7-10.7z"/></g><g class="o"><path class="fc" d="M1654.5 246.4a12.7 12.7 0 1 1 12.7-12.7 12.7 12.7 0 0 1-12.7 12.7zm0-23.4a10.7 10.7 0 1 0 10.7 10.7 10.7 10.7 0 0 0-10.7-10.7z"/></g><g class="o"><path class="fd" d="M1654.5 780.5a12.7 12.7 0 1 1 12.7-12.7 12.7 12.7 0 0 1-12.7 12.7zm0-23.4a10.7 10.7 0 1 0 10.7 10.7 10.7 10.7 0 0 0-10.7-10.7z"/></g><g class="o"><path class="fe" d="M1122.6 246.4a12.7 12.7 0 1 1 12.7-12.7 12.7 12.7 0 0 1-12.7 12.7zm0-23.4a10.7 10.7 0 1 0 10.7 10.7 10.7 10.7 0 0 0-10.7-10.7z"/></g><path class="ff" d="M1241.2 271.8a32.1 32.1 0 0 1-32-32V38.3h4v201.5a28.1 28.1 0 0 0 28 28v4z"/><path class="fg" d="M1203.9 39.3h14.6l-7.3-7.3-7.3 7.3z"/><g class="o"><path class="fh" d="M1299.9 246.4a12.7 12.7 0 1 1 12.7-12.7 12.7 12.7 0 0 1-12.7 12.7zm0-23.4a10.7 10.7 0 1 0 10.7 10.7 10.7 10.7 0 0 0-10.7-10.7z"/></g><g class="o"><path class="fi" d="M1831.8 783a12.7 12.7 0 1 1 12.7-12.7 12.7 12.7 0 0 1-12.7 12.7zm0-23.4a10.7 10.7 0 1 0 10.7 10.7 10.7 10.7 0 0 0-10.7-10.7z"/></g><path class="fj" d="M472 539.6v-4a28.1 28.1 0 0 0 28-28V299.8a32.1 32.1 0 0 1 32-32h117.3a32.1 32.1 0 0 1 32 32v201.5h-4V299.8a28.1 28.1 0 0 0-28-28H532a28.1 28.1 0 0 0-28 28v207.8a32.1 32.1 0 0 1-32 32z"/><path class="fk" d="M686.6 500.3H672l7.3 7.3 7.3-7.3z"/><path class="fl" d="M504 769.1h-4V567.6a28.1 28.1 0 0 0-28-28H354.7a32.1 32.1 0 0 1-32-32V306.1h4v201.5a28.1 28.1 0 0 0 28 28H472a32.1 32.1 0 0 1 32 32v201.5z"/><path class="fm" d="M494.7 768.1h14.6l-7.3 7.3-7.3-7.3z"/><path class="fn" d="M317.4 307.1h14.5l-7.2-7.3-7.3 7.3z"/><path class="fo" d="M1890.5 1878.6h-111v-4h111a28.1 28.1 0 0 0 28-28v-207.8a28.1 28.1 0 0 0-28-28h-117.3a28.1 28.1 0 0 0-28 28v167.7h-4v-167.7a32.1 32.1 0 0 1 32-32h117.3a32.1 32.1 0 0 1 32 32v207.8a32.1 32.1 0 0 1-32 32z"/><path class="fp" d="M1735.9 1805.4h14.6l-7.3 7.3-7.3-7.3z"/><path class="fq" d="M1780.5 1883.9v-14.6l-7.3 7.3 7.3 7.3z"/></g></svg>