<svg xmlns="http://www.w3.org/2000/svg" width="101.3mm" height="116.1mm" viewBox="0 0 287.1 329.1"><defs><style>.a,.e{fill:#fff}.a,.c{opacity:.5}.a,.b,.c{isolation:isolate}.b,.c,.d{fill:none;stroke:#fff;stroke-miterlimit:10}.b,.c{stroke-width:2px}.b{opacity:.66}.c{stroke-linecap:round}.d{stroke-width:4px}</style></defs><title>hp-icon-hero-sms</title><path class="a" d="M59.4 104.1a15 15 0 1 1-15-15 15 15 0 0 1 15 15zm91.3-7.8H68.9v15.6h81.8V96.3zM119 134.8H29.3v15.6H119v-15.6z"/><circle class="b" cx="90.7" cy="234.7" r="11.7"/><path class="c" d="M269.7 288.9a83 83 0 1 0-34.1 27l44.8 11.8z"/><path class="d" d="M124.8 269.8H33.2A31.2 31.2 0 0 1 2 238.6V33.2A31.2 31.2 0 0 1 33.2 2h114.9a31.2 31.2 0 0 1 31.2 31.2v96.6"/><path class="e" d="M186.6 128.8h-14.5l7.2 7.3 7.3-7.3z"/></svg>