<svg xmlns="http://www.w3.org/2000/svg" viewBox="387.4 238 392 365.8">
    <style>.st0{fill:url(#SVGID_1_)}.st1{fill:none;stroke:#5b6177;stroke-width:2;stroke-miterlimit:10;enable-background:new}.st1,.st2{opacity:.66}.st3{fill:none;stroke:#052844;stroke-width:4;stroke-miterlimit:10}.st4{fill:#052844}.st5{fill:#fff;stroke:url(#SVGID_2_);stroke-width:2;stroke-linecap:round;stroke-miterlimit:10}.st6,.st7{fill:none}.st7{stroke:#142a43;stroke-width:4;stroke-miterlimit:10}.st8{fill:#142a43}.st9{opacity:.66;fill:none;stroke:#606279;stroke-width:2;stroke-miterlimit:10;enable-background:new}.st10{display:none}.st11{display:inline}.st12{fill:url(#SVGID_3_)}.st13{display:inline;opacity:.66;fill:none;stroke:#606279;stroke-width:2;stroke-miterlimit:10;enable-background:new}.st14{fill:url(#SVGID_5_)}.st15{fill:url(#SVGID_6_)}.st16{fill:url(#SVGID_7_)}.st17{fill:url(#SVGID_8_)}.st18{fill:url(#SVGID_9_)}.st19{fill:url(#SVGID_10_)}.st20{fill:none;stroke:url(#SVGID_11_);stroke-width:2;stroke-miterlimit:10}.st21{fill:url(#SVGID_12_)}.st22{fill:url(#SVGID_13_)}.st23{fill:none;stroke:#c9c8d1;stroke-width:10;stroke-miterlimit:10}.st24{fill:#fff}.st25{fill:url(#SVGID_14_)}.st26{fill:url(#SVGID_15_)}.st27{fill:url(#SVGID_16_)}.st28{fill:url(#SVGID_17_)}.st29{fill:url(#SVGID_18_)}</style>
    <g id="hp-product-voice">
        <path class="st6" d="M583.4 541.2c-40.5 0-73.6-33.1-73.6-73.6v-91.3c0-40.5 33.1-73.6 73.6-73.6 40.5 0 73.6 33.1 73.6 73.6v91.3c.1 40.5-33 73.6-73.6 73.6z" />
        <g class="st2">
            <path class="st7" d="M657.1 399.7v67.8c0 40.5-33.1 73.6-73.6 73.6-40.5 0-73.6-33.1-73.6-73.6v-91.3c0-40.5 33.1-73.6 73.6-73.6" />
            <path class="st8" d="M664.4 400.7h-14.6l7.3-7.3z" />
        </g>
        <path class="st9" d="M686.6 467.6c0 56.8-46.3 103.1-103.1 103.1-38.1 0-71.4-20.7-89.2-51.5" />
        <g class="st10">
            <g class="st11">
                <linearGradient id="SVGID_1_" gradientUnits="userSpaceOnUse" x1="511.616" y1="573.121" x2="491.252" y2="593.485" gradientTransform="rotate(180 542.42 420.835)">
                    <stop offset="0" stop-color="#62a5da" />
                    <stop offset="1" stop-color="#944f94" />
                </linearGradient>
                <path class="st0" d="M583.4 278.3c-.6 0-1-.4-1-1v-37.9c0-.6.4-1 1-1s1 .4 1 1v37.9c0 .6-.5 1-1 1z" />
            </g>
            <path class="st13" d="M583.4 583.9v19.4" />
            <g class="st11">
                <linearGradient id="SVGID_2_" gradientUnits="userSpaceOnUse" x1="-873.149" y1="131.497" x2="-884.288" y2="142.636" gradientTransform="rotate(120 -248.087 624.422)">
                    <stop offset="0" stop-color="#62a5da" />
                    <stop offset="1" stop-color="#944f94" />
                </linearGradient>
                <path d="M497.7 327.8c-.2 0-.3 0-.5-.1l-16.8-9.7c-.5-.3-.6-.9-.4-1.4s.9-.6 1.4-.4l16.8 9.7c.5.3.6.9.4 1.4-.2.4-.6.5-.9.5z" fill="url(#SVGID_2_)" />
            </g>
            <g class="st11">
                <linearGradient id="SVGID_3_" gradientUnits="userSpaceOnUse" x1="-239.323" y1="537.178" x2="-255.076" y2="552.931" gradientTransform="rotate(150 175.55 515.317)">
                    <stop offset="0" stop-color="#62a5da" />
                    <stop offset="1" stop-color="#944f94" />
                </linearGradient>
                <path class="st12" d="M534 291.6c-.3 0-.7-.2-.9-.5l-14.4-24.9c-.3-.5-.1-1.1.4-1.4.5-.3 1.1-.1 1.4.4l14.4 24.9c.3.5.1 1.1-.4 1.4-.2.1-.3.1-.5.1z" />
            </g>
            <g class="st11">
                <linearGradient id="SVGID_5_" gradientUnits="userSpaceOnUse" x1="-1184.755" y1="-408.253" x2="-1195.893" y2="-397.114" gradientTransform="scale(1 -1) rotate(-60 -186.493 -1980.034)">
                    <stop offset="0" stop-color="#62a5da" />
                    <stop offset="1" stop-color="#944f94" />
                </linearGradient>
                <path class="st14" d="M669.2 327.8c-.3 0-.7-.2-.9-.5-.3-.5-.1-1.1.4-1.4l16.8-9.7c.5-.3 1.1-.1 1.4.4.3.5.1 1.1-.4 1.4l-16.8 9.7c-.2.1-.3.1-.5.1z" />
            </g>
            <g class="st11">
                <linearGradient id="SVGID_6_" gradientUnits="userSpaceOnUse" x1="-779.063" y1="225.564" x2="-794.816" y2="241.317" gradientTransform="matrix(.866 .5 .5 -.866 1204.85 873.806)">
                    <stop offset="0" stop-color="#62a5da" />
                    <stop offset="1" stop-color="#944f94" />
                </linearGradient>
                <path class="st15" d="M632.9 291.6c-.2 0-.3 0-.5-.1-.5-.3-.6-.9-.4-1.4l14.4-24.9c.3-.5.9-.6 1.4-.4.5.3.6.9.4 1.4l-14.4 24.9c-.2.4-.6.5-.9.5z" />
            </g>
        </g>
        <linearGradient id="SVGID_7_" gradientUnits="userSpaceOnUse" x1="528.211" y1="586.002" x2="638.556" y2="475.658" gradientTransform="matrix(1 0 0 -1 0 841.67)">
            <stop offset="0" stop-color="#ffee6e" />
            <stop offset="1" stop-color="#ec6872" />
        </linearGradient>
        <path class="st16" d="M583.4 278.3c-.6 0-1-.4-1-1v-37.9c0-.6.4-1 1-1s1 .4 1 1v37.9c0 .6-.4 1-1 1zm-84.8 49c.3-.5.1-1.1-.4-1.4l-16.8-9.7c-.5-.3-1.1-.1-1.4.4-.3.5-.1 1.1.4 1.4l16.8 9.7c.2.1.3.1.5.1.4 0 .7-.2.9-.5zm35.9-35.9c.5-.3.6-.9.4-1.4l-14.4-24.8c-.3-.5-.9-.6-1.4-.4-.5.3-.6.9-.4 1.4L533 291c.2.3.5.5.9.5.2.1.4 0 .6-.1zm135.2 36.3l16.8-9.7c.5-.3.6-.9.4-1.4-.3-.5-.9-.6-1.4-.4l-16.8 9.7c-.5.3-.6.9-.4 1.4.2.3.5.5.9.5.1 0 .3-.1.5-.1zm-35.9-36.6l14.3-24.8c.3-.5.1-1.1-.4-1.4-.5-.3-1.1-.1-1.4.4L632 290.1c-.3.5-.1 1.1.4 1.4.2.1.3.1.5.1.4 0 .7-.2.9-.5z" />
        <path class="st9" d="M583.4 583.9v19.4" />
        <linearGradient id="SVGID_8_" gradientUnits="userSpaceOnUse" x1="547.14" y1="494.174" x2="592.309" y2="449.005" gradientTransform="matrix(1 0 0 -1 0 841.67)">
            <stop offset="0" stop-color="#ffee6e" />
            <stop offset="1" stop-color="#e94a75" />
        </linearGradient>
        <path class="st17" d="M576 334.6c4.6 0 8.4 3.8 8.4 8.4 0 4.6-3.8 8.4-8.4 8.4-4.6 0-8.4-3.8-8.4-8.4 0-4.6 3.7-8.4 8.4-8.4zm0 27.1c4.6 0 8.4 3.8 8.4 8.4 0 4.6-3.8 8.4-8.4 8.4-4.6 0-8.4-3.8-8.4-8.4 0-4.7 3.7-8.4 8.4-8.4zm0 27c4.6 0 8.4 3.8 8.4 8.4 0 4.6-3.8 8.4-8.4 8.4-4.6 0-8.4-3.8-8.4-8.4 0-4.6 3.7-8.4 8.4-8.4zm-26-40.6c4.6 0 8.4 3.8 8.4 8.4 0 4.6-3.8 8.4-8.4 8.4-4.6 0-8.4-3.8-8.4-8.4 0-4.6 3.7-8.4 8.4-8.4zm0 27.1c4.6 0 8.4 3.8 8.4 8.4 0 4.6-3.8 8.4-8.4 8.4-4.6 0-8.4-3.8-8.4-8.4 0-4.6 3.7-8.4 8.4-8.4z" />
    </g>
</svg>
