<?xml version="1.0" encoding="utf-8"?>
<!-- Generator: Adobe Illustrator 19.1.0, SVG Export Plug-In . SVG Version: 6.00 Build 0)  -->
<svg version="1.1" id="Isolation_Mode" xmlns="http://www.w3.org/2000/svg" xmlns:xlink="http://www.w3.org/1999/xlink" x="0px"
	 y="0px" viewBox="0 0 66.3 81.3" style="enable-background:new 0 0 66.3 81.3;" width="66.3" height="81.3" xml:space="preserve" >
<style type="text/css">
	.st0{fill:none;}
	.st1{fill:none;stroke:#FFFFFF;stroke-width:2;stroke-miterlimit:10;}
	.st2{fill:#FFFFFF;}
	.st3{opacity:0.5;fill:none;stroke:#FFFFFF;stroke-width:2;stroke-miterlimit:10;}
	.st4{opacity:0.5;fill:#FFFFFF;}
</style>
<g>
	<path class="st0" d="M17.1,81.3"/>
</g>
<g>
	<g>
		<path class="st1" d="M32,48.4c-2.1,0.6-4.4,1-6.8,1c-3.4,0-6.6-0.7-9.5-1.9l-13,3.4l3.1-11.3c-3-4-4.7-8.9-4.8-14.3
			C0.9,12,11.7,1.1,25,1c13.4-0.1,24.3,10.7,24.3,24"/>
		<g>
			<polygon class="st2" points="53,24.5 45.7,24.6 49.4,28.2 			"/>
		</g>
	</g>
</g>
<path class="st3" d="M62,58.6c2-2.7,3.3-6.1,3.3-9.8C65.4,39.6,58,32,48.8,32C39.6,31.9,32,39.3,32,48.6
	c-0.1,9.2,7.4,16.7,16.6,16.8c2.4,0,4.6-0.5,6.7-1.3l9,2.4L62,58.6z"/>
<path class="st4" d="M17.4,21.5c0,1.7-1.3,3-3,3c-1.7,0-3-1.3-3-3s1.3-3,3-3C16.1,18.5,17.4,19.8,17.4,21.5z M35.7,19.9H19.3v3.1
	h16.4V19.9z M30.9,27.7H11.4v3.1h19.5V27.7z"/>
</svg>
