<?xml version="1.0" encoding="utf-8"?>
<!-- Generator: Adobe Illustrator 19.1.0, SVG Export Plug-In . SVG Version: 6.00 Build 0)  -->
<svg version="1.1" id="Isolation_Mode" xmlns="http://www.w3.org/2000/svg" xmlns:xlink="http://www.w3.org/1999/xlink" x="0px"
	 y="0px" viewBox="0 0 52 53.9" style="enable-background:new 0 0 52 53.9;" width="52" height="53.9" xml:space="preserve">
<style type="text/css">
	.st0{fill:none;stroke:#FFFFFF;stroke-width:2;stroke-miterlimit:10;}
	.st1{fill:#FFFFFF;}
	.st2{opacity:0.5;fill:none;stroke:#FFFFFF;stroke-width:2;stroke-linecap:round;stroke-miterlimit:10;}
	.st3{opacity:0.66;fill:none;stroke:#FFFFFF;stroke-width:2;stroke-miterlimit:10;}
	.st4{opacity:0.5;fill:#FFFFFF;}
</style>
<g>
	<g>
		<g>
			<path class="st0" d="M4.3,38.4c-1.4-2.5-2.4-5.3-2.9-8.3C-0.9,16.6,8.2,3.7,21.8,1.4c13.6-2.3,26.5,6.9,28.8,20.5
				s-6.9,26.5-20.5,28.8c-3.5,0.6-6.9,0.4-10.1-0.4"/>
			<g>
				<polygon class="st1" points="19.5,53.9 21.6,46.9 17.1,49.4 				"/>
			</g>
		</g>
	</g>
	<g>
		<circle class="st2" cx="34.6" cy="15" r="7.1"/>
		<line class="st3" x1="28" y1="21.7" x2="5.2" y2="44.4"/>
		<circle class="st4" cx="36.3" cy="13.3" r="2.1"/>
		<path class="st4" d="M12.7,44.2L10.5,42l2.1-2.1l2.2,2.2L12.7,44.2z M12.7,46l-3.1-3.1l-2.1,2.1l3.1,3.1L12.7,46z"/>
	</g>
</g>
</svg>
