<?xml version="1.0" encoding="utf-8"?>
<!-- Generator: Adobe Illustrator 19.1.0, SVG Export Plug-In . SVG Version: 6.00 Build 0)  -->
<svg version="1.1" id="Isolation_Mode" xmlns="http://www.w3.org/2000/svg" xmlns:xlink="http://www.w3.org/1999/xlink" x="0px"
	 y="0px" viewBox="0 0 58.6 67.2" style="enable-background:new 0 0 58.6 67.2;" width="58.6" height="67.2" xml:space="preserve">
<style type="text/css">
	.st0{opacity:0.5;fill:#FFFFFF;}
	.st1{opacity:0.66;fill:none;stroke:#FFFFFF;stroke-width:2;stroke-miterlimit:10;}
	.st2{fill:none;stroke:#FFFFFF;stroke-width:2;stroke-miterlimit:10;}
	.st3{fill:#FFFFFF;}
	.st4{opacity:0.5;fill:none;stroke:#FFFFFF;stroke-width:1.5;stroke-linecap:round;stroke-miterlimit:10;}
</style>
<g>
	<path class="st0" d="M12.5,21.4c0,1.7-1.3,3-3,3s-3-1.3-3-3s1.3-3,3-3S12.5,19.8,12.5,21.4z M30.7,19.9H14.4V23h16.4V19.9z
		 M24.4,27.6H6.5v3.1h17.9V27.6z"/>
	<circle class="st1" cx="18.7" cy="47.6" r="2.3"/>
	<g>
		<g>
			<path class="st2" d="M25.6,54.6H7.2c-3.4,0-6.2-2.8-6.2-6.2V7.2C1,3.8,3.8,1,7.2,1h23c3.4,0,6.2,2.8,6.2,6.2v17.4"/>
			<g>
				<polygon class="st3" points="40.1,24.2 32.8,24.2 36.5,27.8 				"/>
			</g>
		</g>
	</g>
	<path class="st4" d="M54.5,58.4c2-2.7,3.3-6.1,3.3-9.8c0.1-9.2-7.4-16.7-16.6-16.8c-9.2-0.1-16.7,7.4-16.8,16.6
		c-0.1,9.2,7.4,16.7,16.6,16.8c2.4,0,4.6-0.5,6.7-1.3l9,2.4L54.5,58.4z"/>
</g>
</svg>
