<?xml version="1.0" encoding="utf-8"?>
<!-- Generator: Adobe Illustrator 19.1.0, SVG Export Plug-In . SVG Version: 6.00 Build 0)  -->
<svg version="1.1" id="Isolation_Mode" xmlns="http://www.w3.org/2000/svg" xmlns:xlink="http://www.w3.org/1999/xlink" x="0px"
	 y="0px" viewBox="0 0 64.8 44.2" style="enable-background:new 0 0 64.8 44.2;" width="64.8" height="44.2" xml:space="preserve">
<style type="text/css">
	.st0{opacity:0.5;fill:none;stroke:#FFFFFF;stroke-width:1.5;stroke-miterlimit:10;}
	.st1{opacity:0.5;fill:#FFFFFF;}
	.st2{fill:none;stroke:#FFFFFF;stroke-width:2;stroke-miterlimit:10;}
	.st3{fill:#FFFFFF;}
</style>
<path class="st0" d="M16,26.2c-2.1-8.3,2.6-17,10.9-19.6c8.7-2.8,18,1.9,20.8,10.6c2.8,8.7-1.9,18-10.6,20.8
	c-4.8,1.6-9.8,0.8-13.8-1.7"/>
<circle class="st1" cx="32" cy="22.2" r="7.6"/>
<g>
	<g>
		<path class="st2" d="M2.6,29.1C7.8,35.4,17.8,43.2,32,43.2c22.3,0,31.7-20.9,31.7-20.9S56.5,1,32,1C17.4,1,5.9,11.8,1.6,18.8"/>
		<g>
			<polygon class="st3" points="5.8,27.3 0,31.6 0.7,26.5 			"/>
		</g>
	</g>
</g>
</svg>
