<svg id="Layer_1" xmlns="http://www.w3.org/2000/svg" viewBox="892.2 643.5 460 380"><style>.st0{fill:#fff;stroke:#c9c8d1;stroke-width:2;stroke-miterlimit:10}.st1{opacity:.1;fill:#606279;enable-background:new}.st2{fill:url(#SVGID_1_)}.st3{fill:#fff}.st4{fill:none;stroke:#5d7286;stroke-width:4;stroke-miterlimit:10}.st5{fill:#5d7286}.st6{fill:url(#SVGID_2_)}.st7,.st8{fill:#c9c8d2;stroke:#fff;stroke-width:5;stroke-miterlimit:10}.st8{fill:#c9c8d1;stroke-width:3}.st9{fill:url(#SVGID_4_)}.st10{fill:url(#SVGID_5_)}.st11{fill:url(#SVGID_6_)}.st12{fill:url(#SVGID_7_)}.st13{fill:url(#SVGID_8_)}.st14{fill:#555b72}.st15{fill:url(#SVGID_9_)}.st16{fill:url(#SVGID_10_)}.st17{fill:url(#SVGID_11_)}.st18{fill:url(#SVGID_12_)}.st19{fill:url(#SVGID_13_)}.st20{fill:url(#SVGID_14_)}.st21{fill:url(#SVGID_15_)}.st22{fill:url(#SVGID_16_)}.st23{fill:url(#SVGID_17_)}.st24{opacity:.66}.st25{fill:none;stroke:#142a43;stroke-width:4;stroke-miterlimit:10}.st26{fill:#142a43}.st27{fill:url(#SVGID_18_)}.st28{opacity:.4;fill:none;stroke:#61627a;stroke-width:2;stroke-miterlimit:10;enable-background:new}.st29{fill:url(#SVGID_19_)}.st30{opacity:.4;enable-background:new}.st31{fill:#61627a}.st32{fill:#bcb9c4}.st33{fill:url(#SVGID_20_)}.st34{fill:url(#SVGID_21_)}.st35{fill:url(#SVGID_22_)}.st36{fill:#c9c8d1}.st37{fill:url(#SVGID_23_)}.st38{fill:url(#SVGID_24_)}.st39{fill:#bdb9c4}.st40{fill:#5a5e75}.st41{fill:url(#SVGID_25_)}.st42{fill:url(#SVGID_26_)}.st43,.st44,.st45{fill:none;stroke:#eaeaf0;stroke-width:2;stroke-miterlimit:10}.st46{fill:none}.st46,.st47,.st48{stroke-width:2;stroke-miterlimit:10}.st44{clip-path:url(#SVGID_27_)}.st45{clip-path:url(#SVGID_28_)}.st46{clip-path:url(#SVGID_29_);stroke:silver}.st47,.st48{clip-path:url(#SVGID_30_);fill:#fff;stroke:#eaeaf0}.st48{clip-path:url(#SVGID_31_);fill:none}.st49{clip-path:url(#SVGID_32_)}.st49,.st50,.st51,.st52,.st53,.st54,.st55,.st56,.st57{fill:#fff;stroke:#eaeaf0;stroke-width:2;stroke-miterlimit:10}.st58{stroke-width:2;stroke-miterlimit:10}.st50{clip-path:url(#SVGID_33_)}.st51{clip-path:url(#SVGID_34_)}.st52{clip-path:url(#SVGID_35_)}.st53{clip-path:url(#SVGID_36_)}.st54{clip-path:url(#SVGID_37_)}.st55{clip-path:url(#SVGID_38_)}.st56{clip-path:url(#SVGID_39_)}.st57{clip-path:url(#SVGID_40_)}.st58{clip-path:url(#SVGID_41_);fill:none;stroke:#c9c8d1}.st59{clip-path:url(#SVGID_42_)}.st59,.st60,.st61,.st62,.st63,.st64,.st65,.st66,.st67{fill:#fff;stroke:#eaeaf0;stroke-width:2;stroke-miterlimit:10}.st60{clip-path:url(#SVGID_43_)}.st61{clip-path:url(#SVGID_44_)}.st62{clip-path:url(#SVGID_45_)}.st63{clip-path:url(#SVGID_46_)}.st64{clip-path:url(#SVGID_47_)}.st65{clip-path:url(#SVGID_48_)}.st66{clip-path:url(#SVGID_49_)}.st67{clip-path:url(#SVGID_50_)}.st68{clip-path:url(#SVGID_51_);fill:#fff}.st69,.st70{clip-path:url(#SVGID_52_);fill:#fff}.st70{clip-path:url(#SVGID_53_)}.st71{clip-path:url(#SVGID_54_);stroke-width:2;stroke-miterlimit:10}.st71,.st72,.st73{fill:#fff;stroke:#c9c8d1}.st72,.st73,.st74,.st75,.st76,.st77{stroke-width:2;stroke-miterlimit:10}.st72{clip-path:url(#SVGID_55_)}.st73{clip-path:url(#SVGID_56_)}.st74{clip-path:url(#SVGID_57_);fill:none;stroke:#eaeaf0}.st75{clip-path:url(#SVGID_58_)}.st75,.st76,.st77{fill:#fff;stroke:#c9c8d1}.st76{clip-path:url(#SVGID_59_)}.st77{clip-path:url(#SVGID_60_)}.st78,.st79{clip-path:url(#SVGID_61_);fill:#fff}.st79{clip-path:url(#SVGID_62_);stroke:#c9c8d1}.st79,.st80,.st81{stroke-width:2;stroke-miterlimit:10}.st80{clip-path:url(#SVGID_63_);fill:none;stroke:#eaeaf0}.st81{clip-path:url(#SVGID_64_);fill:#fff;stroke:#c9c8d1}.st82{clip-path:url(#SVGID_65_);fill:url(#SVGID_66_)}.st83{clip-path:url(#SVGID_67_);fill:url(#SVGID_68_)}.st84{clip-path:url(#SVGID_69_);fill:url(#SVGID_70_)}.st85{clip-path:url(#SVGID_71_);fill:url(#SVGID_72_)}.st86{clip-path:url(#SVGID_73_);fill:url(#SVGID_74_)}.st87{clip-path:url(#SVGID_75_);fill:url(#SVGID_76_)}.st88{clip-path:url(#SVGID_77_);fill:url(#SVGID_78_)}.st89{fill:none;stroke:#fff;stroke-width:21;stroke-miterlimit:10}.st90{fill:url(#SVGID_79_)}.st91{fill:url(#SVGID_80_)}.st92{opacity:.4;fill:none;stroke:#606279;stroke-width:2;stroke-miterlimit:10;enable-background:new}.st93{opacity:.2}.st94{fill:#606279}.st95{stroke:url(#SVGID_81_);stroke-linecap:round}.st95,.st96,.st97{fill:none;stroke-width:2;stroke-miterlimit:10}.st96{stroke-linecap:round;stroke:url(#SVGID_82_)}.st97{opacity:.2;stroke:#606279;enable-background:new}.st98{fill:url(#SVGID_83_)}.st99{fill:url(#SVGID_84_)}.st100{fill:url(#SVGID_85_)}.st101{fill:url(#SVGID_86_)}.st102{opacity:.6}.st103{opacity:.4}.st104{fill:none;stroke:#606279;stroke-width:2;stroke-miterlimit:10}.st105{fill:url(#SVGID_87_)}.st106{fill:url(#SVGID_88_)}.st107{fill:url(#SVGID_89_)}.st108{fill:url(#SVGID_90_)}.st109,.st110{stroke-miterlimit:10}.st109{opacity:.2;enable-background:new;fill:none;stroke:#61627a;stroke-width:2}.st110{fill:url(#SVGID_91_);stroke:#fff;stroke-width:4}.st111,.st112{fill:#fff;stroke-miterlimit:10}.st111{stroke-dasharray:12;stroke:url(#SVGID_92_)}.st112{stroke:url(#SVGID_93_);stroke-width:2}.st113{fill:url(#SVGID_94_)}.st114{fill:#404c9b}.st115{fill:#c8c7d0}.st116{fill:#6ac4d7}.st116,.st117,.st118{clip-path:url(#SVGID_95_)}.st117{fill:#6ac3d8}.st118{fill:#6ac3d7}.st119{fill:#69c2d7}.st119,.st120,.st121,.st122{clip-path:url(#SVGID_95_)}.st120{fill:#69c1d6}.st121{fill:#68c0d6}.st122{fill:#66bfd6}.st123{fill:#67bed5}.st123,.st124,.st125,.st126{clip-path:url(#SVGID_95_)}.st124{fill:#65bdd5}.st125{fill:#66bdd5}.st126{fill:#64bcd5}.st127{fill:#65bbd4}.st127,.st128,.st129,.st130{clip-path:url(#SVGID_95_)}.st128{fill:#63bad4}.st129{fill:#64b9d4}.st130{fill:#62b9d3}.st131{fill:#62b8d3}.st131,.st132,.st133,.st134{clip-path:url(#SVGID_95_)}.st132{fill:#63b8d3}.st133{fill:#61b7d3}.st134{fill:#61b6d3}.st135{fill:#60b5d2}.st135,.st136,.st137,.st138{clip-path:url(#SVGID_95_)}.st136{fill:#61b4d2}.st137{fill:#5fb4d2}.st138{fill:#5fb3d1}.st139{fill:#60b3d1}.st139,.st140,.st141,.st142{clip-path:url(#SVGID_95_)}.st140{fill:#5eb2d1}.st141{fill:#5fb1d0}.st142{fill:#5db1d1}.st143{fill:#5db0d0}.st143,.st144,.st145,.st146{clip-path:url(#SVGID_95_)}.st144{fill:#5eb0d0}.st145{fill:#5cafcf}.st146{fill:#5daecf}.st147{fill:#5baecf}.st147,.st148,.st149,.st150{clip-path:url(#SVGID_95_)}.st148{fill:#5badcf}.st149{fill:#5cadcf}.st150{fill:#5aacce}.st151{fill:#5babce}.st151,.st152,.st153,.st154{clip-path:url(#SVGID_95_)}.st152{fill:#59abce}.st153{fill:#5aaace}.st154{fill:#5aaacd}.st155{fill:#59a9cd}.st155,.st156,.st157,.st158{clip-path:url(#SVGID_95_)}.st156{fill:#59a8cd}.st157{fill:#58a7cd}.st158{fill:#58a7cc}.st159{fill:#58a6cc}.st159,.st160,.st161,.st162{clip-path:url(#SVGID_95_)}.st160{fill:#57a6cc}.st161{fill:#57a5cb}.st162{fill:#56a4cb}.st163{fill:#57a3cb}.st163,.st164,.st165,.st166{clip-path:url(#SVGID_95_)}.st164{fill:#55a2ca}.st165{fill:#56a2ca}.st166{fill:#56a1ca}.st167{fill:#55a1ca}.st167,.st168,.st169,.st170{clip-path:url(#SVGID_95_)}.st168{fill:#55a0c9}.st169{fill:#549fc9}.st170{fill:#549fc8}.st171{fill:#549ec9}.st171,.st172,.st173,.st174{clip-path:url(#SVGID_95_)}.st172{fill:#539dc8}.st173{fill:#529cc7}.st174{fill:#539bc7}.st175{fill:#519ac7}.st175,.st176,.st177,.st178{clip-path:url(#SVGID_95_)}.st176{fill:#529ac6}.st177{fill:#5199c6}.st178{fill:#5198c5}.st179{fill:#5198c6}.st179,.st180,.st181,.st182{clip-path:url(#SVGID_95_)}.st180{fill:#5097c5}.st181{fill:#4f96c4}.st182{fill:#4f95c4}.st183{fill:#5095c4}.st183,.st184,.st185,.st186{clip-path:url(#SVGID_95_)}.st184{fill:#4e94c4}.st185{fill:#4f93c3}.st186{fill:#4e92c3}.st187{fill:#4e92c2}.st187,.st188,.st189,.st190{clip-path:url(#SVGID_95_)}.st188{fill:#4e91c2}.st189{fill:#4d91c2}.st190{fill:#4d90c2}.st191{fill:#4e90c1}.st191,.st192,.st193,.st194{clip-path:url(#SVGID_95_)}.st192{fill:#4c8fc1}.st193{fill:#4d8ec1}.st194{fill:#4c8dc0}.st195{fill:#4c8cc0}.st195,.st196,.st197,.st198{clip-path:url(#SVGID_95_)}.st196{fill:#4b8bbf}.st197{fill:#4c8bbf}.st198{fill:#4b8abf}.st199{fill:#4b8abe}.st199,.st200,.st201,.st202{clip-path:url(#SVGID_95_)}.st200{fill:#4b89be}.st201{fill:#4a88bd}.st202{fill:#4b87bd}.st203{fill:#4a86bd}.st203,.st204,.st205,.st206{clip-path:url(#SVGID_95_)}.st204{fill:#4a86bc}.st205{fill:#4b85bc}.st206{fill:#4a84bb}.st207{fill:#4983bb}.st207,.st208,.st209,.st210{clip-path:url(#SVGID_95_)}.st208{fill:#4982ba}.st209{fill:#4a82ba}.st210{fill:#4881b9}.st211{fill:#4981b9}.st211,.st212,.st213,.st214{clip-path:url(#SVGID_95_)}.st212{fill:#4880b9}.st213{fill:#4980b8}.st214{fill:#477fb8}.st215{fill:#487eb8}.st215,.st216,.st217,.st218{clip-path:url(#SVGID_95_)}.st216{fill:#487eb7}.st217{fill:#477db7}.st218{fill:#487cb6}.st219{fill:#477cb6}.st219,.st220,.st221,.st222{clip-path:url(#SVGID_95_)}.st220{fill:#477bb6}.st221{fill:#467ab5}.st222{fill:#4779b5}.st223{fill:#4678b4}.st223,.st224,.st225,.st226{clip-path:url(#SVGID_95_)}.st224{fill:#4677b4}.st225{fill:#4576b3}.st226{fill:#4676b3}.st227{fill:#4575b2}.st227,.st228,.st229,.st230{clip-path:url(#SVGID_95_)}.st228{fill:#4674b2}.st229{fill:#4473b1}.st230{fill:#4573b1}.st231{fill:#4472b0}.st231,.st232,.st233,.st234{clip-path:url(#SVGID_95_)}.st232{fill:#4471b0}.st233{fill:#4571b0}.st234{fill:#4470af}.st235{fill:#446faf}.st235,.st236,.st237,.st238{clip-path:url(#SVGID_95_)}.st236{fill:#436eae}.st237{fill:#446eae}.st238{fill:#446dae}.st239{fill:#436cad}.st239,.st240,.st241,.st242{clip-path:url(#SVGID_95_)}.st240{fill:#446cad}.st241{fill:#446bac}.st242{fill:#436bac}.st243{fill:#436aac}.st243,.st244,.st245,.st246{clip-path:url(#SVGID_95_)}.st244{fill:#4269ab}.st245{fill:#4369ab}.st246{fill:#4368ab}.st247{fill:#4267ab}.st247,.st248,.st249,.st250{clip-path:url(#SVGID_95_)}.st248{fill:#4367aa}.st249{fill:#4266aa}.st250{fill:#4266a9}.st251{fill:#4365a9}.st251,.st252,.st253,.st254{clip-path:url(#SVGID_95_)}.st252{fill:#4264a9}.st253{fill:#4264a8}.st254{fill:#4163a8}.st255{fill:#4262a7}.st255,.st256,.st257,.st258{clip-path:url(#SVGID_95_)}.st256{fill:#4161a7}.st257{fill:#4261a6}.st258{fill:#4160a6}.st259{fill:#415fa5}.st259,.st260,.st261,.st262{clip-path:url(#SVGID_95_)}.st260{fill:#425fa5}.st261{fill:#415ea5}.st262{fill:#415da4}.st263{fill:#405da4}.st263,.st264,.st265,.st266{clip-path:url(#SVGID_95_)}.st264{fill:#415ca3}.st265{fill:#415ba3}.st266{fill:#405ba3}.st267{fill:#415aa2}.st267,.st268,.st269,.st270{clip-path:url(#SVGID_95_)}.st268{fill:#4159a2}.st269{fill:#4059a1}.st270{fill:#4158a1}.st271{fill:#4057a1}.st271,.st272,.st273,.st274{clip-path:url(#SVGID_95_)}.st272{fill:#4057a0}.st273{fill:#4156a0}.st274{fill:#40559f}.st275{fill:#40549f}.st275,.st276,.st277,.st278{clip-path:url(#SVGID_95_)}.st276{fill:#40549e}.st277{fill:#40539e}.st278{fill:#40529d}.st279{fill:#3f519d}.st279,.st280,.st281,.st282{clip-path:url(#SVGID_95_)}.st280{fill:#40509c}.st281{fill:#3f4f9b}.st282{fill:#3f4e9b}.st283{fill:#3f4d9a}.st283,.st284,.st285,.st286{clip-path:url(#SVGID_95_)}.st284{fill:#3f4c99}.st285{fill:#3f4b99}.st286{fill:#3f4a98}.st287{fill:none;stroke:#142942;stroke-width:4;stroke-miterlimit:10}.st288{fill:#142942}.st289{opacity:.2;enable-background:new}.st290{fill:#60627a}.st291{fill:none}</style><path class="st14" d="M1120.1 714.8c-7.2.1-14.4.7-21.6 1.9-37.8 5.9-70.2 25.2-93.2 52.3-23 27.1-36.4 61.9-36.4 99 0 7.9.6 16 1.9 23.9 5.9 37.8 25.2 70.2 52.3 93.2s61.9 36.4 99 36.4c7.9 0 16-.6 23.9-1.9 23.7-3.7 45.2-12.6 63.6-25.5l-2.1-3c-18 12.5-39 21.3-62.2 24.8-7.9 1.3-15.7 1.8-23.4 1.8-36.2 0-70.3-13.2-96.7-35.6-26.5-22.4-45.3-54.1-51-90.9-1.3-7.9-1.8-15.7-1.8-23.4 0-36.2 13.2-70.3 35.6-96.7 22.4-26.5 54.1-45.3 90.9-51 7.9-1.3 15.7-1.8 23.4-1.8 72.5 0 136.2 52.7 147.8 126.6 1.3 7.9 1.8 15.7 1.8 23.4 0 33.9-11.6 65.9-31.5 91.6l2.8 2.2c20.4-26.3 32.2-59.1 32.2-93.8 0-7.9-.6-16-1.9-23.9-5.9-37.8-25.2-70.2-52.3-93.2-25.7-21.7-58.3-35-93.2-36.3-1.3.1-2.4.2-3.7.2-1.2-.1-2.7-.2-4.2-.3"/><path class="st14" d="M1236.9 956.9l1.1 9.2 9.1-1-3.7-3-2.7-2.2-3.8-3"/><circle class="st36" cx="1123.1" cy="997.5" r="3.9"/><path class="st36" d="M1252.9 871.4c-2.2 0-3.9-1.7-3.9-3.9 0-2.1 1.7-3.8 3.9-3.8 2.1 0 3.9 1.7 3.9 3.8 0 2.2-1.7 3.9-3.9 3.9zm-259.8 0c-2.1 0-3.9-1.7-3.9-3.9 0-2.1 1.7-3.8 3.9-3.8s3.9 1.7 3.9 3.8c0 2.2-1.7 3.9-3.9 3.9z"/><circle class="st36" cx="1214.9" cy="959.4" r="3.9"/><circle class="st36" cx="1031.2" cy="775.7" r="3.9"/><circle class="st36" cx="1031.2" cy="959.4" r="3.9"/><circle class="st36" cx="1214.9" cy="775.7" r="3.9"/><linearGradient id="SVGID_1_" gradientUnits="userSpaceOnUse" x1="-221.38" y1="1006.12" x2="-220.483" y2="1006.12" gradientTransform="translate(15218.379 -63260.441) scale(63.6641)"><stop offset="0" stop-color="#f8fbfe"/><stop offset="1" stop-color="#f9f6fb"/></linearGradient><path class="st2" d="M1124.4 733.9v118.8l57-104s-23-14.6-55.8-14.6h-1.3l.1-.2"/><linearGradient id="SVGID_2_" gradientUnits="userSpaceOnUse" x1="-225.286" y1="1003.812" x2="-224.389" y2="1003.812" gradientTransform="translate(19747.396 -82239.352) scale(82.7398)"><stop offset="0" stop-color="#bd4994"/><stop offset="1" stop-color="#502f88"/></linearGradient><path class="st6" d="M1133.1 857l48.3-108.3-57.2 104.2c-3-.4-6 .1-8.8 1.5-2.9 1.5-5.2 3.9-6.6 6.8-3.7 7.5-.6 16.6 6.9 20.3 4.3 2.2 9.4 2.1 13.6-.1 2.9-1.5 5.2-3.9 6.6-6.7 3.1-6.1 1.7-13.2-2.8-17.7zm1.9 17.1c-3.3 6.7-12 9.7-18.7 6.4-6.9-3.4-9.8-11.8-6.4-18.7 1.3-2.7 3.5-4.8 6.1-6.3 4-2.1 8.6-2.1 12.6-.1 6.9 3.3 9.8 11.7 6.4 18.7z"/><path class="st5" d="M1228.6 746.2l18.4 18.6-6.1 6.1-18.5-18.6zm8.6-13.5l23.5 23.5-9.3 9.1-23.5-23.5z"/><path class="st39" d="M1124.7 645.5c-19.2 0-34.8 15.6-34.8 34.8 0 17.7 13.2 32.3 30.2 34.4h2.3c2 0 3.9 0 5.9.1 17.5-1.9 31-16.6 31-34.5h-1.8c0 9.1-3.7 17.3-9.7 23.3s-14.2 9.7-23.3 9.7c-9.1 0-17.3-3.7-23.3-9.7-6-6-9.7-14.2-9.7-23.3s3.7-17.3 9.7-23.3c6-6 14.2-9.7 23.3-9.7 9.1 0 17.3 3.7 23.3 9.7 6 6 9.7 14.2 9.7 23.3h1.8c.1-19.2-15.4-34.8-34.6-34.8"/><path class="st40" d="M1122.4 714.8h-2.3c1.4.2 3 .3 4.5.3 1.3 0 2.5-.1 3.7-.2-1.9-.1-3.9-.1-5.9-.1"/><path class="st5" d="M1111.3 702.5h26.3v12.9h-26.3zm-3.5-15.5h33.2v12.7h-33.2z"/><circle class="st36" cx="1123.1" cy="737.6" r="3.9"/></svg>