<svg xmlns="http://www.w3.org/2000/svg" width="73.2mm" height="128.7mm" viewBox="0 0 207.6 364.9"><defs><style>.a,.c{fill:#fff;}.a{opacity:0.5;}.a,.d{isolation:isolate;}.b,.d{fill:none;stroke:#fff;stroke-miterlimit:10;}.b{stroke-width:4px;}.d{stroke-width:2px;opacity:0.66;}</style></defs><title>hp-hero-icon-voice</title><path class="a" d="M297.7,279a0.9,0.9,0,0,1-1-1V240.1a1,1,0,1,1,2,0V278A1.1,1.1,0,0,1,297.7,279Zm-84.9,49a1,1,0,0,0-.4-1.4h0l-16.8-9.7a1,1,0,0,0-1.1,1.7h0.1l16.8,9.7a1.1,1.1,0,0,0,1.4-.3h0Zm35.9-35.9a1.1,1.1,0,0,0,.4-1.4h0l-14.3-24.8a1,1,0,0,0-1.4-.3,1,1,0,0,0-.3,1.3l14.3,24.8A1,1,0,0,0,248.7,292.1Zm135.2,36.2,16.8-9.7a1,1,0,0,0,.3-1.4,1,1,0,0,0-1.3-.3l-16.8,9.7a1,1,0,0,0-.4,1.4,1.1,1.1,0,0,0,1.4.3h0ZM348,291.7l14.3-24.8a1,1,0,0,0-1.7-1.1h0l-14.3,24.8a1.1,1.1,0,0,0,.3,1.4,1,1,0,0,0,1.4-.4h0Z" transform="translate(-194 -239.1)"/><path class="b" d="M371.1,400.4v67.8a73.8,73.8,0,0,1-73.6,73.6h0a73.8,73.8,0,0,1-73.6-73.6V376.9a73.8,73.8,0,0,1,73.6-73.6h0" transform="translate(-194 -239.1)"/><polygon class="c" points="184.4 162.2 169.9 162.2 177.2 155 184.4 162.2"/><path class="d" d="M400.6,468.2a103.1,103.1,0,0,1-192.4,51.6" transform="translate(-194 -239.1)"/><line class="d" x1="103.5" y1="345.4" x2="103.5" y2="364.9"/><path class="a" d="M290,335.3a8.4,8.4,0,1,1-8.4,8.4,8.5,8.5,0,0,1,8.4-8.4h0Zm0,27a8.4,8.4,0,1,1-8.4,8.4,8.5,8.5,0,0,1,8.4-8.4h0Zm0,27.1a8.4,8.4,0,1,1-8.4,8.4,8.5,8.5,0,0,1,8.4-8.4h0Zm-26-40.6a8.4,8.4,0,1,1-8.4,8.4h0a8.5,8.5,0,0,1,8.4-8.4h0Zm0,27.1a8.4,8.4,0,1,1-8.4,8.4,8.5,8.5,0,0,1,8.4-8.4h0Z" transform="translate(-194 -239.1)"/></svg>